<?xml version="1.0" encoding="UTF-8"?>
<svg id="Layer_2" data-name="Layer 2" xmlns="http://www.w3.org/2000/svg" viewBox="0 0 996.93 938.52">
  <defs>
    <style>
      .cls-1 {
        fill: #fff;
      }
    </style>
  </defs>
  <g id="Layer_1-2" data-name="Layer 1">
    <path class="cls-1" d="M113.42,104.34c.5-.43,1.51-.6,2.06-1.03.79-.61,1.59-.71,2.06-1.03,1.68-1.14,3.24-2.2,4.12-4.12-.96-1.75-3.69,2.2-5.15,3.09-1.1.67-2.2.69-4.12,2.06-6.95,4.96-14.64,10.34-17.51,18.56,1.44,1.61,16.97-16.18,18.55-17.53Z"/>
    <path class="cls-1" d="M13.42,421.93c-.8-.75-6.96,1.1-7.2,3.07l6.16,3.12,1.04-6.19Z"/>
    <path class="cls-1" d="M10.34,432.24c-.89,1.01.97,8.1,4.11,7.21.4-3.21-.12-7.14-4.11-7.21Z"/>
    <path class="cls-1" d="M59.28,172.42c.57-.96,3.14-5.54,2.59-6.2-1.6-1.94-2.21,1.45-2.56,2.03-.57.96-3.14,5.54-2.59,6.2,1.6,1.94,2.21-1.45,2.56-2.03Z"/>
    <path class="cls-1" d="M7.76,412.65c-2.49,2.15-4.39,7.01.51,7.21l-.51-7.21Z"/>
    <path class="cls-1" d="M993.62,350.29c.01-.28-.85-.46-.85-.54-.62-2.53-1.77-1.75-3.09,0-.32.8-1.66,1.38-1.02,3.09,1.2-.68,4.92-1.36,4.96-2.55Z"/>
    <path class="cls-1" d="M125.28,89.9h.52c.24-.16.78.15,1.03,0,6.16-3.8,6.31-9.29,2.06-4.12-3.37,1.64.08-3.79-2.56-2.05-2.7,1.77-4.51,3.62-1.56,6.18-1.58,1.02-4.62,3.07-4.63,5.17l5.66-5.17c-.12.08-.32.04-.52,0Z"/>
    <path class="cls-1" d="M18.57,425.02h-2.05v4.11h2.05v-4.11Z"/>
    <path class="cls-1" d="M3.12,407.49c-3.65-.07-1.68,2.03-2.05,5.15.27.44,1.62-1.03,2.05-1.03,1.23-1.01,1.67-3.87,0-4.12Z"/>
    <path class="cls-1" d="M11.36,304.38h-2.05v3.09h2.05v-3.09Z"/>
    <path class="cls-1" d="M6.2,412.64c.62-1.7-.7-2.29-1.02-3.09l-1.03,2.06c.11,0,.67,1.51,2.06,1.03Z"/>
    <path class="cls-1" d="M12.39,289.94h-3.08v2.05h3.08v-2.05Z"/>
    <path class="cls-1" d="M165.22,60.6c.22-.12.47-.31.78-.59,10.33-5.57,6.48-7.36-1.03-1.03-1.04.88-2.79,1.5-3.09,3.08,1.61.48,2.45-.63,3.34-1.46Z"/>
    <path class="cls-1" d="M16.51,278.6h-3.08v2.05h3.08v-2.05Z"/>
    <path class="cls-1" d="M135.07,78.56c1.57.36,11.07-1.61,7.71-4.12-2.44-1.82-6.68,2.41-8.74,4.12-1.02.84-2.3,1.41-3.09,2.58l.52.52,3.6-3.1Z"/>
    <g>
      <path class="cls-1" d="M472.6,895.37v24.62h-15.05v-47.67h15.05v14.85l-.04.06c.45-2.67,1.13-5.01,2.05-7.03.92-2.02,2.07-3.71,3.44-5.06,1.37-1.37,2.96-2.4,4.77-3.09,1.82-.69,3.83-1.04,6.05-1.04,2.51,0,4.7.44,6.57,1.32,1.87.87,3.44,2.17,4.69,3.91,1.27,1.73,2.22,3.89,2.85,6.48.63,2.6.95,5.61.95,9.04v28.21h-15.05v-24.97c0-1.86-.16-3.48-.47-4.84-.32-1.38-.8-2.54-1.45-3.46-.65-.92-1.46-1.6-2.44-2.05-.97-.46-2.1-.69-3.41-.69-.92,0-1.77.11-2.55.34-.76.22-1.46.54-2.1.97-.64.42-1.2.95-1.69,1.6-.47.63-.88,1.38-1.21,2.23-.32.84-.56,1.78-.74,2.83-.16,1.04-.24,2.18-.24,3.41Z"/>
      <path class="cls-1" d="M404.5,896.15c0-2.54.27-4.92.82-7.16.55-2.24,1.33-4.28,2.36-6.14,1.02-1.87,2.26-3.54,3.72-4.99,1.45-1.47,3.1-2.71,4.93-3.72,1.83-1.01,3.82-1.78,5.97-2.31,2.15-.53,4.42-.8,6.81-.8s4.66.27,6.81.8c2.15.53,4.14,1.3,5.97,2.31,1.83,1.01,3.48,2.25,4.93,3.72,1.46,1.45,2.7,3.12,3.72,4.99,1.02,1.86,1.81,3.9,2.36,6.14.55,2.22.82,4.6.82,7.16s-.27,4.93-.82,7.18c-.55,2.23-1.33,4.28-2.36,6.14-1.02,1.86-2.27,3.53-3.74,4.99-1.45,1.46-3.1,2.7-4.93,3.72-1.81,1.01-3.79,1.78-5.95,2.31-2.13.53-4.4.8-6.81.8s-4.66-.27-6.81-.8c-2.15-.53-4.14-1.3-5.97-2.31-1.82-1.02-3.46-2.26-4.93-3.72-1.46-1.47-2.7-3.13-3.72-4.99s-1.81-3.91-2.36-6.14c-.55-2.25-.82-4.64-.82-7.18ZM419.68,896.15c0,1.97.21,3.72.63,5.23.42,1.52,1.03,2.79,1.84,3.83.8,1.02,1.79,1.8,2.96,2.33,1.17.53,2.5.8,4,.8s2.85-.26,4.02-.78c1.17-.53,2.15-1.32,2.94-2.36.8-1.04,1.42-2.31,1.83-3.83.42-1.51.63-3.26.63-5.23s-.21-3.72-.63-5.23c-.42-1.52-1.03-2.78-1.83-3.81-.79-1.04-1.77-1.82-2.94-2.34-1.17-.53-2.51-.8-4.02-.8s-2.83.27-4,.8c-1.17.52-2.16,1.3-2.96,2.34-.81,1.02-1.42,2.29-1.84,3.81-.42,1.51-.63,3.26-.63,5.23Z"/>
      <path class="cls-1" d="M400.57,872.33v47.67h-15.05v-47.67h15.05ZM400.66,856.01v11.59h-15.22v-11.59h15.22Z"/>
      <path class="cls-1" d="M381.41,919.63c-2.12.56-4.1.98-5.95,1.26-1.83.27-3.55.41-5.17.41-2.74,0-5.14-.4-7.22-1.21-2.08-.79-3.81-1.98-5.21-3.57-1.39-1.58-2.43-3.56-3.14-5.92-.69-2.38-1.04-5.14-1.04-8.3v-40.95h15.05v40.97c0,1.27.11,2.36.33,3.26.23.91.57,1.66,1.04,2.25.47.57,1.08,1.01,1.82,1.3.73.29,1.61.43,2.64.43.82,0,1.79-.09,2.9-.28,1.11-.19,2.43-.47,3.96-.84v11.2ZM381.41,884.09h-33.42v-11.76h33.42v11.76Z"/>
      <path class="cls-1" d="M343.99,872.33v47.67h-15.05v-47.67h15.05ZM344.08,856.01v11.59h-15.22v-11.59h15.22Z"/>
      <path class="cls-1" d="M291.04,856.01v30.89l-.04.09c.46-2.6,1.14-4.88,2.03-6.85.89-1.99,1.98-3.65,3.27-4.99,1.3-1.36,2.77-2.38,4.43-3.07,1.67-.69,3.53-1.04,5.56-1.04,1.84,0,3.59.28,5.23.84,1.66.55,3.18,1.34,4.56,2.38,1.4,1.02,2.65,2.28,3.76,3.76,1.11,1.48,2.05,3.16,2.81,5.02.78,1.86,1.38,3.89,1.8,6.1.42,2.2.62,4.55.62,7.03s-.21,4.82-.62,7.03c-.42,2.2-1.02,4.24-1.8,6.12-.76,1.86-1.7,3.53-2.81,5.02-1.11,1.49-2.36,2.75-3.76,3.78-1.38,1.02-2.9,1.81-4.56,2.36-1.64.56-3.39.84-5.23.84-2.02,0-3.86-.34-5.54-1.04-1.67-.69-3.16-1.71-4.45-3.05-1.29-1.35-2.37-3.03-3.27-5.02-.89-1.99-1.57-4.28-2.03-6.88l.04.09v14.59h-15.05v-63.99h15.05ZM291.04,896.15c0,1.32.09,2.55.28,3.68.19,1.12.46,2.14.82,3.05.36.91.81,1.71,1.34,2.4.55.69,1.17,1.27,1.86,1.73.7.46,1.49.81,2.36,1.06.87.24,1.81.37,2.83.37,1.54,0,2.9-.26,4.06-.78,1.17-.52,2.14-1.29,2.92-2.31.79-1.02,1.38-2.3,1.77-3.83.4-1.54.6-3.33.6-5.36s-.2-3.81-.6-5.34c-.39-1.53-.97-2.8-1.75-3.83-.78-1.02-1.76-1.8-2.94-2.32-1.17-.52-2.52-.78-4.06-.78-1.02,0-1.97.12-2.83.37-.87.24-1.65.6-2.36,1.06-.69.46-1.31,1.04-1.86,1.73-.53.69-.98,1.49-1.34,2.4-.36.91-.63,1.92-.82,3.05-.19,1.11-.28,2.33-.28,3.65Z"/>
      <path class="cls-1" d="M271.11,872.33v47.67h-15.05v-47.67h15.05ZM271.2,856.01v11.59h-15.22v-11.59h15.22Z"/>
      <path class="cls-1" d="M220.1,895.37v24.62h-15.05v-63.99h15.05v31.17l-.04.06c.45-2.67,1.13-5.01,2.05-7.03.92-2.02,2.07-3.71,3.44-5.06,1.37-1.37,2.96-2.4,4.78-3.09,1.82-.69,3.83-1.04,6.05-1.04,2.51,0,4.7.44,6.57,1.32,1.87.87,3.44,2.17,4.69,3.91,1.27,1.73,2.22,3.89,2.85,6.48.64,2.6.95,5.61.95,9.04v28.21h-15.05v-24.97c0-1.86-.16-3.48-.47-4.84-.32-1.38-.8-2.54-1.45-3.46-.65-.92-1.46-1.6-2.44-2.05-.97-.46-2.1-.69-3.42-.69-.92,0-1.77.11-2.55.34-.76.22-1.46.54-2.1.97-.64.42-1.2.95-1.69,1.6-.48.63-.88,1.38-1.21,2.23-.32.84-.56,1.78-.74,2.83-.16,1.04-.24,2.18-.24,3.41Z"/>
      <path class="cls-1" d="M200.85,872.33l-14.31,23.74v-.46l15.74,24.39h-17.34l-10.01-17.16h.24l-9.71,17.16h-16.45l14.85-24.21v.45l-15.03-23.91h17.34l9.32,16.99h-.24l9.17-16.99h16.43Z"/>
      <path class="cls-1" d="M102.84,858.17h43.19v13.23h-28.28l1.04-1.08v13.73l-1.04-1.08h25.81v12.32h-25.81l1.04-1.08v13.64l-1.04-1.08h29.01v13.23h-43.93v-61.83Z"/>
    </g>
    <g>
      <path class="cls-1" d="M404.37,821.46v20.86h-15.05v-47.67h15.05v17.49l-.04.06c.36-2.68.9-5.1,1.62-7.26.73-2.16,1.69-4.01,2.88-5.54,1.18-1.53,2.61-2.7,4.3-3.52,1.69-.82,3.66-1.23,5.92-1.23h3.16v14.09h-6.4c-2.25,0-4.11.25-5.58.76-1.47.51-2.64,1.27-3.5,2.31-.86,1.04-1.48,2.36-1.83,3.96-.35,1.6-.52,3.5-.52,5.69Z"/>
      <path class="cls-1" d="M337.75,812.56c0-2.97.54-5.63,1.62-8,1.1-2.36,2.65-4.37,4.67-6.03,2.03-1.67,4.49-2.95,7.39-3.83,2.91-.89,6.19-1.34,9.82-1.34s7,.47,9.9,1.4c2.91.92,5.37,2.27,7.37,4.04,2,1.76,3.53,3.92,4.58,6.49,1.05,2.56,1.58,5.48,1.58,8.76v28.28h-15.05v-12.15l.06-.02c-.33,1.4-.79,2.7-1.36,3.89-.57,1.2-1.27,2.3-2.08,3.31-.81.99-1.72,1.88-2.75,2.66-1.02.78-2.14,1.43-3.35,1.97-1.2.53-2.48.94-3.85,1.21-1.37.29-2.81.43-4.32.43-2.35,0-4.49-.34-6.42-1.02-1.91-.66-3.56-1.6-4.93-2.81-1.37-1.23-2.43-2.69-3.18-4.39-.75-1.72-1.12-3.63-1.12-5.73,0-2.28.46-4.32,1.36-6.12.92-1.8,2.25-3.32,4-4.56,1.76-1.26,3.9-2.21,6.42-2.85,2.52-.66,5.4-.99,8.63-.99h13.21v8.13h-11.18c-1.2,0-2.26.1-3.18.3-.9.2-1.67.51-2.29.91-.6.41-1.07.91-1.38,1.52-.32.59-.48,1.27-.48,2.03s.15,1.48.46,2.1c.32.62.78,1.14,1.38,1.55.61.42,1.34.74,2.2.97.88.22,1.88.33,3,.33,1.05,0,2.05-.09,3-.28.97-.2,1.86-.47,2.68-.82.82-.36,1.57-.79,2.25-1.28.68-.5,1.25-1.06,1.71-1.66.48-.61.84-1.26,1.1-1.97.26-.72.39-1.46.39-2.23v-10.7c0-1.47-.2-2.78-.59-3.93-.37-1.17-.94-2.15-1.69-2.96-.73-.81-1.64-1.42-2.72-1.84-1.08-.42-2.33-.63-3.74-.63s-2.64.18-3.68.54c-1.02.36-1.87.88-2.53,1.55-.66.68-1.16,1.51-1.49,2.49-.32.97-.47,2.06-.47,3.29h-14.98Z"/>
      <path class="cls-1" d="M300.35,819.67c0,1.95.24,3.68.71,5.21.49,1.53,1.2,2.82,2.12,3.89.92,1.07,2.04,1.88,3.35,2.44,1.32.55,2.82.82,4.49.82,1.09,0,2.1-.12,3.03-.37.94-.26,1.78-.64,2.53-1.15.76-.5,1.43-1.13,2.01-1.88.57-.75,1.08-1.63,1.51-2.64h13.88c-.67,2.74-1.72,5.19-3.13,7.37s-3.13,4.03-5.14,5.56c-2.02,1.51-4.31,2.67-6.88,3.48-2.55.81-5.3,1.21-8.24,1.21-3.63,0-6.95-.6-9.94-1.81-3-1.23-5.57-2.94-7.72-5.15-2.15-2.2-3.81-4.85-4.99-7.93-1.17-3.1-1.75-6.52-1.75-10.27s.59-7.16,1.75-10.22c1.17-3.08,2.81-5.73,4.93-7.93,2.12-2.2,4.66-3.91,7.63-5.12,2.97-1.21,6.25-1.82,9.83-1.82s6.85.61,9.77,1.82c2.93,1.2,5.43,2.89,7.5,5.08,2.09,2.18,3.71,4.81,4.84,7.89,1.15,3.08,1.73,6.51,1.73,10.29,0,.58-.01,1.17-.04,1.77-.03.6-.08,1.2-.15,1.8h-39.24v-8.22h31.09l-5.58,8.05c.04-.61.07-1.19.09-1.75.03-.58.04-1.12.04-1.64,0-2.29-.21-4.29-.63-6.01-.42-1.72-1.04-3.15-1.88-4.3-.84-1.15-1.87-2.01-3.11-2.57-1.24-.57-2.68-.87-4.32-.87s-3.07.28-4.33.82c-1.25.55-2.3,1.36-3.16,2.42-.85,1.05-1.5,2.36-1.95,3.91-.45,1.56-.67,3.35-.67,5.36v2.46Z"/>
      <path class="cls-1" d="M282.26,778.33v63.99h-15.05v-63.99h15.05Z"/>
      <path class="cls-1" d="M230.6,818.48c0,1.97.21,3.72.63,5.23.42,1.52,1.03,2.79,1.83,3.83.81,1.02,1.8,1.8,2.96,2.34,1.17.53,2.5.8,4,.8,1.24,0,2.33-.18,3.27-.54.94-.36,1.74-.87,2.42-1.54.68-.66,1.23-1.46,1.67-2.4.43-.94.76-1.98.97-3.13h14.98c-.38,3.07-1.2,5.87-2.49,8.39-1.28,2.52-2.94,4.69-4.97,6.51-2.02,1.8-4.37,3.2-7.05,4.19-2.68.98-5.61,1.47-8.8,1.47-2.39,0-4.66-.27-6.81-.8-2.15-.53-4.14-1.31-5.97-2.32-1.82-1.02-3.46-2.26-4.93-3.72-1.46-1.47-2.7-3.14-3.72-5-1.02-1.86-1.81-3.9-2.36-6.14-.55-2.25-.82-4.64-.82-7.18s.27-4.92.82-7.16c.55-2.23,1.33-4.28,2.36-6.14,1.02-1.87,2.26-3.54,3.72-4.99,1.45-1.47,3.1-2.71,4.93-3.72,1.83-1.01,3.82-1.78,5.97-2.31,2.15-.53,4.42-.8,6.81-.8,3.19,0,6.12.5,8.8,1.49,2.7.98,5.05,2.37,7.07,4.18,2.02,1.8,3.67,3.97,4.95,6.51,1.29,2.52,2.11,5.32,2.49,8.39h-14.98c-.22-1.16-.54-2.2-.97-3.14-.43-.94-.99-1.73-1.67-2.4-.68-.66-1.48-1.17-2.42-1.54-.94-.36-2.02-.54-3.27-.54-1.5,0-2.83.27-4,.8-1.17.52-2.15,1.3-2.96,2.33-.8,1.02-1.42,2.29-1.83,3.81-.42,1.51-.63,3.26-.63,5.23Z"/>
      <path class="cls-1" d="M196.5,819.28v-24.62h15.05v47.67h-15.05v-14.85l.04-.06c-.45,2.67-1.13,5.01-2.05,7.03-.92,2.02-2.07,3.71-3.44,5.08-1.37,1.36-2.96,2.38-4.78,3.07-1.81.69-3.83,1.04-6.05,1.04-2.51,0-4.7-.43-6.57-1.3-1.87-.88-3.45-2.18-4.71-3.91-1.25-1.74-2.2-3.91-2.83-6.51-.63-2.6-.95-5.61-.95-9.04v-28.21h15.05v24.97c0,1.86.16,3.48.48,4.86.32,1.37.8,2.52,1.45,3.44.65.92,1.46,1.61,2.42,2.08.98.45,2.13.67,3.44.67.92,0,1.77-.11,2.53-.32.78-.23,1.48-.55,2.12-.97.63-.43,1.19-.97,1.66-1.6.49-.65.89-1.39,1.21-2.23.33-.85.57-1.8.73-2.83.18-1.05.26-2.2.26-3.44Z"/>
      <path class="cls-1" d="M160.32,780.5v61.83h-21.7l-20.67-46.61.11-.02v46.63h-15.22v-61.83h23l19.37,43.37-.11.04v-43.41h15.22Z"/>
    </g>
    <g>
      <path class="cls-1" d="M336.02,706.63h15.05v63.99h-15.05v-14.59l.04-.09c-.46,2.6-1.14,4.89-2.03,6.88s-1.99,3.66-3.28,5.02c-1.28,1.34-2.76,2.36-4.43,3.05-1.67.69-3.51,1.04-5.53,1.04-1.85,0-3.6-.28-5.25-.84-1.64-.55-3.17-1.34-4.56-2.36-1.38-1.04-2.63-2.3-3.74-3.78-1.11-1.48-2.05-3.16-2.83-5.02-.76-1.87-1.36-3.91-1.77-6.12-.42-2.2-.63-4.55-.63-7.03s.21-4.82.63-7.03c.42-2.2,1.01-4.24,1.77-6.1.78-1.86,1.72-3.53,2.83-5.02,1.11-1.48,2.36-2.74,3.74-3.76,1.4-1.04,2.92-1.83,4.56-2.38,1.66-.56,3.41-.84,5.25-.84,2.03,0,3.88.34,5.53,1.04,1.67.69,3.15,1.72,4.43,3.07,1.3,1.34,2.39,3,3.28,4.99.89,1.97,1.57,4.26,2.03,6.85l-.04-.09v-30.89ZM336.02,746.77c0-1.32-.09-2.54-.28-3.65-.19-1.13-.46-2.14-.82-3.05-.36-.91-.81-1.71-1.36-2.4-.53-.69-1.15-1.27-1.86-1.73-.69-.46-1.47-.81-2.33-1.06-.87-.24-1.81-.37-2.83-.37-1.54,0-2.9.26-4.09.78-1.17.52-2.14,1.29-2.92,2.31-.78,1.02-1.37,2.3-1.77,3.83-.39,1.53-.59,3.31-.59,5.34s.2,3.82.59,5.36c.4,1.53.99,2.8,1.77,3.82.79,1.02,1.77,1.8,2.94,2.32,1.17.52,2.52.78,4.06.78,1.02,0,1.97-.13,2.83-.37.86-.24,1.64-.6,2.33-1.06.71-.46,1.32-1.04,1.86-1.73.55-.69,1-1.49,1.36-2.4s.64-1.92.82-3.05c.19-1.12.28-2.35.28-3.68Z"/>
      <path class="cls-1" d="M298.06,706.63v63.99h-15.05v-63.99h15.05Z"/>
      <path class="cls-1" d="M261.49,749.75v20.86h-15.05v-47.67h15.05v17.49l-.04.06c.36-2.68.9-5.1,1.62-7.26.74-2.16,1.69-4.01,2.88-5.54,1.18-1.53,2.62-2.7,4.3-3.52,1.68-.82,3.66-1.23,5.92-1.23h3.16v14.09h-6.4c-2.25,0-4.11.25-5.58.76-1.47.51-2.64,1.27-3.5,2.31-.87,1.04-1.48,2.36-1.84,3.96-.34,1.6-.52,3.5-.52,5.69Z"/>
      <path class="cls-1" d="M193.39,746.77c0-2.53.27-4.92.82-7.16.55-2.23,1.33-4.28,2.36-6.14,1.02-1.87,2.26-3.54,3.72-4.99,1.46-1.47,3.1-2.71,4.93-3.72,1.83-1.01,3.82-1.78,5.97-2.31,2.15-.53,4.42-.8,6.81-.8s4.66.27,6.81.8c2.15.53,4.14,1.3,5.97,2.31s3.47,2.25,4.93,3.72c1.45,1.45,2.7,3.12,3.72,4.99,1.02,1.86,1.81,3.91,2.36,6.14.55,2.22.82,4.61.82,7.16s-.27,4.93-.82,7.18c-.55,2.24-1.33,4.28-2.36,6.14-1.02,1.86-2.27,3.53-3.74,5-1.46,1.45-3.1,2.69-4.93,3.72-1.82,1.01-3.8,1.78-5.95,2.32-2.13.53-4.4.8-6.81.8s-4.66-.27-6.81-.8c-2.15-.53-4.14-1.31-5.97-2.32-1.81-1.02-3.46-2.26-4.93-3.72-1.45-1.47-2.69-3.14-3.72-5-1.02-1.86-1.81-3.9-2.36-6.14-.55-2.25-.82-4.64-.82-7.18ZM208.57,746.77c0,1.97.21,3.72.62,5.23.42,1.52,1.03,2.79,1.84,3.83.81,1.02,1.8,1.8,2.96,2.34,1.17.53,2.5.8,4,.8s2.85-.26,4.02-.78c1.17-.54,2.15-1.32,2.94-2.36.81-1.04,1.42-2.31,1.84-3.83.42-1.51.63-3.26.63-5.23s-.21-3.72-.63-5.23c-.42-1.52-1.03-2.78-1.84-3.81-.79-1.04-1.77-1.82-2.94-2.33-1.17-.53-2.51-.8-4.02-.8s-2.83.27-4,.8c-1.17.52-2.15,1.3-2.96,2.33-.81,1.02-1.42,2.29-1.84,3.81-.42,1.51-.62,3.26-.62,5.23Z"/>
      <path class="cls-1" d="M138.7,708.79h20.86l8.82,51.82h-.09l10.1-51.82h16.3l-14.68,61.83h-22.18l-9.12-50.2h.09l-9.21,50.2h-22.18l-14.57-61.83h17.04l9.97,51.82h-.09l8.95-51.82Z"/>
    </g>
    <g>
      <path class="cls-1" d="M664.01,756.09c-.54-1.52-1.2-2.86-2-4.01-.79-1.16-1.7-2.13-2.74-2.9-1.04-.77-2.2-1.35-3.49-1.74-1.27-.39-2.66-.59-4.17-.59s-2.91.2-4.2.59c-1.27.39-2.43.97-3.47,1.74-1.04.77-1.96,1.74-2.76,2.9-.79,1.15-1.45,2.48-2,4.01-.53,1.52-.94,3.23-1.23,5.12-.27,1.89-.4,3.95-.4,6.2s.13,4.31.4,6.2c.28,1.89.69,3.59,1.23,5.12.55,1.52,1.22,2.87,2,4.03.8,1.15,1.72,2.11,2.76,2.88,1.04.77,2.19,1.35,3.47,1.74,1.29.39,2.69.59,4.2.59s2.9-.2,4.17-.59c1.29-.39,2.45-.97,3.49-1.74,1.04-.77,1.95-1.73,2.74-2.88.8-1.16,1.47-2.51,2-4.03.55-1.52.96-3.23,1.23-5.12.28-1.89.42-3.95.42-6.2s-.14-4.32-.42-6.2c-.27-1.89-.68-3.59-1.23-5.12Z"/>
      <path class="cls-1" d="M996.91,372.96c-.11-1.09-5.14-.81-6.01-1.82-.48-.56.08-2.37-.27-2.7-.71-.68-3.64.22-4.05-.14-.6-.53,1.16-3.68.94-4.57-.4-1.64-3.26-.89-2.99-2.63l4.13-.54c-.62-5.08-3.28-5.8-4.14-10.81.47-1.34.79-2.65,1.03-4.12-2.22-8.11-3.98-3.24-6.17-4.59-.21-.12-3.03-3.44-3.11-3.66-.39-.89-.74-.9-1.03,0,.1-2.4-.24-4.46-1.03-6.19-.24-.43.55-2.29-.21-2.91-.63-.52-2.38.38-2.92-.85-2.1-4.77-3.23-13.5-5.36-19.2-32.99-88.1-116.99-156.22-212.12-160.58-1.93-.91-4.25-.85-6.18,0-20.61-.42-37.66,1-57.73,5.16-8.95,1.85-11.78.12-18.56,6.19-.43.38-3.89,1.51-5.15,2.06-2.72,1.19-5.6,2.22-8.52,3.11-7.13-11.61-14.92-22.76-23.33-33.41-2.84-5.19-5.89-10.17-9.15-14.79-14.73-20.87-36.62-37.05-54.77-54.51-3.49-3.36-6.82-8.77-10.92-11.76-4.74-3.45-12.1-4.97-17.7-8.08-5.85-3.24-11.41-8.86-17.56-11.3-4.06-1.62-8.77-1.97-12.94-3.56-8.34-3.18-44.56-19.93-49.75-19.43-2.27.22-3.42,1.77-5.19,2.1-7.91,1.49-33.29-5.7-43.39-7.02-22.86-2.97-45.32-2.96-67.75-1.21-13.66.8-27.1,2.39-40.28,4.75-3.41.51-6.82,1.04-10.24,1.6-10.57,1.72-20.85,5.14-31.57,6.06v2.6c-2.57.8-5.12,1.64-7.66,2.5-8.22,2.08-15.17,3.59-24.57,5.46-2.18.43-19.61,7.23-20.24,8.12-.88,1.26,1.16,3.75.23,5.21-5.29,2.69-10.51,5.5-15.64,8.45-2.23,1.07-4.23,2.08-5.62,2.92-20.63,12.61-49.39,32.97-66.69,49.29-2.52,1.92-4.23,3.98-5.15,6.19-10.51,10.75-19.79,23.1-28.86,35.06-1.3.24-2.84,1.64-3.9,3.27.12-.46.08-.89-.22-1.21.47-.67,2.45-1.05,2.06-3.09-.47.3-1.87,1.22-2.05,1.03l-.52-2.06c-.64.31-.97,1.27-1.32,1.79-.09.07-.17.15-.23.27-2.73,2.05-7.69,2.97-9.4,5.64-1.16,1.82.11,3.03-.42,4.61-.72,2.16-2.63,3.19-3.58,6.25-.21.68-.95,1.51-1.03,2.06-.64,4.57,4.5.73,4.12-2.06,2.07-1.51,3.57-3.7,6.19-4.12.49-.57.94-1.16,1.37-1.74-.23.57-.36,1.15-.34,1.74-9.59,13.59-20.36,28.99-27.49,43.63-1.37,2.81-2.09,9.87-4.39,12.44-.92,1.02-2.59.38-2.96.8-.58.64,0,2.8-.7,4.01-.65,1.1-2.36.77-2.6.99v-1.03c2.74-8.46,7.35-16.23,10.31-24.75.52-1.51,2.56-3.02,2.05-5.16-1.53.34-2.27,1.94-3.08,3.09-7.13,10.06-12.55,23.06-15.46,35.06-2.96,3.65-5.15,9.28-7.16,11.92-2,2.64-6.25,1.46-3.07,7.91.38.78,1.93.81,2,1.47.84,7.65-5.48,7.14-6.11,9.28-.79,2.71,2.48,5.54,2.72,7.24.08.56-.63,9.86-.77,11.06-.1.88-5.18,12.55-5.66,13.07-1.02,1.11-4.75-.27-4.62,1.46.14,1.83,5.94,1.58-.02,9.8-1.9-.33-5.95-.12-4.12,2.06.22.27,1.68-.22,2.06,0,1.35.81.39,6.29,1.03,8.25.04.12,1.61.54,1.92,1.74.13.49.91,9.45.89,9.96-.19,4.44-5.61,16.17-6.76,21.03-.73,3.06,1.33,2.06,1.62,2.56,1.09,1.94-2.28,6.69-2.82,9.04,4.03-1.36,3.78,3.49,3.08,6.52-.15.65-3.2.7-2.06,4.32.42,1.33,3.82-.72,3.11,2.04l-7.18,6.23,3.05,3.06c-2.7,1.73-6.5,11.54-5.13,13.92.1.17,3.12-1.85,2.94,1.4C3.85,389.1.02,389.13,0,391.49c-.02,3.02,6.22,3.09,8.27,4.65.76-.01,1.12.31,1.03,1.03.18.23-.34,1.67.05,1.97.7.52,3.84-.24,5.46.25,3.54,1.06.15,3.8-.11,5.7-.17,1.2.76,1.97.79,2.4,1.81,1.32.33,2.56-1.03,3.09-.15-.02-.51-.94-1.01-1.05-.02.52-.08,1.04-.05,1.57.55,8.32,7.22,8.24,6.99,16.74-.06,2.33-2.96,2.81-2.68,4.68.08.56,2.97,5.7,3.53,5.87l6.6-3.07c5.94,25.69,15.98,52.02,28.34,75.29,37.51,70.63,90.57,119.35,164.48,149.97,41.81,17.32,89.42,25.96,136.56,24.83,2.73.07,5.46.11,8.2.11,61.79,0,119.76-16.38,169.81-45.03-23.68,30.64-37.78,69.07-37.78,110.8,0,2.4.06,4.79.15,7.18-2.82,57.54,34.74,116.88,78.68,151.16.42,1.1,2.05,1.42,3.09,1.03-.76,1.11-.07,1.79,2.06,2.06,4.53,3.33,4.93,3.56,7.82,7.21,1.39,1.75,29.68,10.55,34.44,12.38.95.59,1.63.59,2.06,0,2.66,1.48,5.4,2.16,8.25,2.06,4.72,1.07,9.61,1.52,14.43,2.06,2.44,1.54,4.16,1.89,5.15,1.03,46.96,4.37,97.36-4.49,133.24-35.03,4.81-4.09,9.58-11.3,16.23-12.42l-2.05-1.03c2.18-4.78,7.18-7.27,10.83-11.32,6.71-7.41,10.27-13.07,14.52-21.07,1.19-1.68,2.36-3.38,3.5-5.1,4.69-5.65,12.5-13.48,13.1-17.8,1.68-11.91,10.05-24.78,12.68-39.56l.35-4.58c1.4-6.51,2.46-13.15,3.14-19.9.74-3.71,1.2-7.34.72-9.9.13-2.81.2-5.63.2-8.47,0-41.65-14.05-80.02-37.65-110.63,3.24-.88,6.37-1.79,7.07-2.12,1.28-.58,5.35-3.89,7.61-5.26,1.59-.07,2.96-1.1,4.12-3.09,1.56.65,4.48-.29,5.15-2.06,7.14-3.37,20.22-7.16,25.71-10.89,2.96-2.02,5.38-5.83,8.4-8.1,9.43-7.07,11.21-8.4,19.48-16.61,7.1-7.05,20.35-16.9,25.81-23.96,2.38-3.09,4.94-13.03,9.26-19.32,3.62-5.28,11.75-13.65,14.51-19.51,3.28-6.96,2.06-5.66,6.57-11.96,7.29-10.2,10.29-22.08,16.6-31.88.75-1.17,3.12-1.47,3.45-2.73.38-1.51-2.27-4.05-1.53-6.65.76-2.69,4.5-3.63,4.73-4.65.25-1.09-1.88-2.46-2.05-4.1-.04-.4.12-7.58.2-7.98.1-.49,4.1-8.71,4.44-9.08,1.14-1.28,2.4.11,3.6.08-2.17-4.19-3.04-7.83,3.1-8.26-2.15-2.88-2.86-6.73-3.09-10.3,1.89-2.13,1.89-3.16,0-3.09.37-6.44,4.22-18.27,6.19-24.25.19-.59-1.92-.33-2.12-1.15-.43-1.81.69-4.14.88-6.08.1-1.03-.89-2.29-.84-2.96.04-.59,4.63-2.63,5.15-4.23-4.44-1.06-.05-3.36.65-6.65.6-2.82-.63-4.07-.54-5.77.09-1.75,2.22-2.78,1.97-5.09ZM83.53,145.58c-.66.51-1.4,1.15-2.07,1.88.37-.62.72-1.24,1.04-1.88.46-.29,1-.8,1.46-1.37-.2.47-.35.93-.42,1.37ZM675.26,158.99c2.17-.16,4.52-.5,6.83-1.01-.59.27-1.15.6-1.68,1.01-.52.12-1,.23-1.48.36-.75.17-1.49.36-2.24.54-.13,0-.24.03-.32.08-.36.09-.72.17-1.08.26-.15-.07-.31-.13-.48-.18.37-.2.53-.55.44-1.07ZM614.77,786.84v14.29h-55.66v-10.59c0-2.78.34-5.23,1.01-7.33.69-2.12,1.62-3.98,2.78-5.56,1.16-1.6,2.51-2.98,4.06-4.13,1.54-1.15,3.16-2.14,4.86-2.97,1.71-.85,3.45-1.57,5.21-2.17,1.78-.61,3.48-1.17,5.12-1.67l2.19-.68c1.29-.39,2.52-.78,3.7-1.16,1.18-.39,2.28-.81,3.3-1.25,1.04-.44,1.98-.91,2.83-1.42.86-.52,1.6-1.11,2.22-1.77.61-.66,1.08-1.4,1.41-2.22.33-.83.5-1.78.5-2.83,0-1.23-.26-2.36-.78-3.39-.5-1.05-1.23-1.96-2.17-2.71-.94-.75-2.09-1.34-3.44-1.77-1.35-.44-2.86-.66-4.53-.66-1.82,0-3.44.26-4.86.78-1.4.52-2.58,1.27-3.54,2.26-.94.97-1.66,2.19-2.15,3.65-.49,1.46-.73,3.14-.73,5.04v1.35h-16.69v-1.53c0-4.01.66-7.62,1.98-10.84,1.34-3.22,3.25-5.97,5.73-8.23,2.48-2.26,5.49-4,9.03-5.21,3.54-1.23,7.51-1.84,11.93-1.84s7.98.55,11.32,1.65c3.33,1.1,6.15,2.67,8.44,4.69,2.31,2.03,4.08,4.49,5.3,7.38,1.23,2.88,1.84,6.11,1.84,9.71,0,2.75-.35,5.16-1.04,7.24-.69,2.06-1.63,3.85-2.81,5.38-1.16,1.52-2.51,2.82-4.03,3.89-1.52,1.05-3.13,1.95-4.81,2.69-1.68.74-3.38,1.36-5.09,1.86-1.71.5-3.34.95-4.88,1.34l-3.44.92c-1.04.27-2.07.55-3.11.85-1.04.28-2.04.61-3.02.99-.96.36-1.85.78-2.69,1.25-.83.47-1.56,1.02-2.19,1.65-.61.61-1.1,1.33-1.46,2.15-.12.29-.22.6-.3.92h38.66ZM682.14,777.4c-.71,3.11-1.72,5.97-3.04,8.58-1.3,2.59-2.9,4.92-4.79,6.98-1.87,2.04-3.98,3.77-6.32,5.19-2.34,1.42-4.9,2.5-7.66,3.26-2.75.75-5.66,1.13-8.72,1.13s-5.98-.38-8.75-1.13c-2.75-.75-5.3-1.84-7.64-3.26-2.34-1.41-4.45-3.14-6.34-5.19-1.87-2.06-3.47-4.39-4.79-6.98-1.3-2.61-2.31-5.47-3.02-8.58-.71-3.11-1.06-6.44-1.06-10s.35-6.88,1.06-10c.71-3.11,1.71-5.97,3.02-8.56,1.32-2.61,2.92-4.94,4.79-6.98,1.89-2.06,4-3.8,6.34-5.21,2.34-1.42,4.89-2.5,7.64-3.25,2.77-.75,5.68-1.13,8.75-1.13s5.97.38,8.72,1.13c2.77.75,5.32,1.84,7.66,3.25,2.34,1.42,4.45,3.15,6.32,5.21,1.89,2.04,3.48,4.37,4.79,6.98,1.32,2.59,2.33,5.45,3.04,8.56.71,3.11,1.06,6.45,1.06,10s-.35,6.88-1.06,10ZM685.65,157.02c1.06-.34,2.07-.71,3.01-1.12.54.2,1.21.26,1.88.19-.57.27-1.18.55-1.88.84-1-.04-2.01-.02-3.01.09ZM743.43,786.84v14.29h-55.66v-10.59c0-2.78.34-5.23,1.01-7.33.69-2.12,1.62-3.98,2.78-5.56,1.16-1.6,2.52-2.98,4.06-4.13,1.54-1.15,3.16-2.14,4.86-2.97,1.71-.85,3.45-1.57,5.21-2.17,1.78-.61,3.48-1.17,5.12-1.67l2.19-.68c1.29-.39,2.52-.78,3.7-1.16,1.18-.39,2.28-.81,3.3-1.25,1.04-.44,1.98-.91,2.83-1.42.87-.52,1.6-1.11,2.22-1.77.61-.66,1.09-1.4,1.42-2.22.33-.83.49-1.78.49-2.83,0-1.23-.26-2.36-.78-3.39-.5-1.05-1.23-1.96-2.17-2.71-.94-.75-2.09-1.34-3.44-1.77-1.35-.44-2.86-.66-4.53-.66-1.82,0-3.44.26-4.86.78-1.4.52-2.58,1.27-3.54,2.26-.94.97-1.66,2.19-2.15,3.65-.49,1.46-.73,3.14-.73,5.04v1.35h-16.69v-1.53c0-4.01.66-7.62,1.98-10.84,1.33-3.22,3.24-5.97,5.73-8.23,2.48-2.26,5.49-4,9.03-5.21,3.54-1.23,7.51-1.84,11.93-1.84s7.99.55,11.32,1.65c3.33,1.1,6.15,2.67,8.44,4.69,2.31,2.03,4.08,4.49,5.3,7.38,1.23,2.88,1.84,6.11,1.84,9.71,0,2.75-.35,5.16-1.04,7.24-.69,2.06-1.63,3.85-2.81,5.38-1.16,1.52-2.51,2.82-4.03,3.89-1.52,1.05-3.13,1.95-4.81,2.69-1.68.74-3.38,1.36-5.09,1.86-1.71.5-3.34.95-4.88,1.34l-3.44.92c-1.04.27-2.07.55-3.11.85-1.04.28-2.04.61-3.02.99-.96.36-1.85.78-2.69,1.25-.84.47-1.57,1.02-2.19,1.65-.61.61-1.1,1.33-1.46,2.15-.12.29-.22.6-.3.92h38.66ZM801.36,748.74c-2.58,2.7-4.89,5.3-6.93,7.8-2.03,2.5-3.83,5.01-5.4,7.52-1.55,2.52-2.9,5.09-4.03,7.73-1.13,2.64-2.11,5.45-2.92,8.44-.8,2.97-1.46,6.17-1.98,9.59-.52,3.43-.94,7.19-1.25,11.29h-18.2c.27-4.18.72-8.1,1.37-11.74.66-3.65,1.56-7.11,2.71-10.4,1.15-3.29,2.55-6.44,4.22-9.45,1.67-3.02,3.65-5.98,5.94-8.89,2.31-2.91,4.94-5.81,7.9-8.7,1.28-1.26,2.65-2.53,4.07-3.82h-39.34v-14.43h53.85v15.04Z"/>
    </g>
  </g>
</svg>