<svg width="280" height="280" viewBox="0 0 280 280" fill="none" xmlns="http://www.w3.org/2000/svg">
<path d="M54.6973 110.843H95.9837V226.174H54.6973V110.843Z" fill="black"/>
<path d="M183.473 110.695C154.025 110.695 149.109 126.849 149.109 126.849V110.846H117.254V226.177H149.46C149.46 226.177 149.46 169.088 149.46 159.657C149.46 150.226 154.928 137.785 172.286 137.785C189.643 137.785 191.7 154.741 191.499 156.798C191.299 158.854 191.098 226.127 191.098 226.127H225.11C225.11 226.127 225.11 160.51 225.11 146.112C225.161 120.177 207.753 110.695 183.473 110.695V110.695Z" fill="black"/>
<path d="M75.3154 94.9921C86.7024 94.9921 95.9335 85.7611 95.9335 74.374C95.9335 62.9869 86.7024 53.7559 75.3154 53.7559C63.9283 53.7559 54.6973 62.9869 54.6973 74.374C54.6973 85.7611 63.9283 94.9921 75.3154 94.9921Z" fill="black"/>
</svg>
