<?xml version="1.0" encoding="UTF-8"?>
<svg id="Layer_2" data-name="Layer 2" xmlns="http://www.w3.org/2000/svg" viewBox="0 0 543.17 322.05">
  <defs>
    <style>
      .cls-1 {
        fill: #fff;
      }
    </style>
  </defs>
  <g id="Layer_1-2" data-name="Layer 1">
    <g>
      <path class="cls-1" d="M0,321.2v-54.89c0-13.42,1.61-25.23,4.84-35.42,3.23-10.19,7.55-19.12,12.98-26.79,5.43-7.66,11.73-14.25,18.92-19.75,7.19-5.5,14.74-10.27,22.66-14.3,7.92-4.03,15.95-7.46,24.09-10.29,8.14-2.82,15.91-5.41,23.32-7.75l7.37-2.42c4.99-1.54,9.83-3.1,14.52-4.68,4.69-1.58,9.13-3.23,13.31-4.95,4.18-1.72,8.01-3.59,11.5-5.61,3.48-2.02,6.49-4.25,9.02-6.71,2.53-2.46,4.49-5.19,5.88-8.2,1.39-3.01,2.09-6.38,2.09-10.12s-.79-7.26-2.37-10.34c-1.58-3.08-3.83-5.67-6.77-7.75-2.93-2.09-6.54-3.7-10.83-4.84-4.29-1.14-9.11-1.71-14.46-1.71-6.31,0-11.71.81-16.22,2.42-4.51,1.61-8.2,4.11-11.05,7.48-2.86,3.37-4.97,7.72-6.33,13.03-1.36,5.32-2.04,11.72-2.04,19.2v6.6H1.43v-7.37c0-19.43,3.23-36.92,9.68-52.47,6.45-15.55,15.67-28.78,27.67-39.71,11.99-10.93,26.53-19.3,43.62-25.13C99.48,2.92,118.69,0,140.03,0c20.02,0,38.04,2.58,54.07,7.75,16.02,5.17,29.61,12.6,40.75,22.28,11.15,9.68,19.71,21.45,25.68,35.31,5.98,13.86,8.97,29.52,8.97,46.97,0,13.35-1.69,25.01-5.06,34.98-3.37,9.97-7.87,18.61-13.47,25.91-5.61,7.3-12.08,13.44-19.42,18.42-7.33,4.99-14.96,9.19-22.88,12.59-7.92,3.41-15.9,6.22-23.93,8.42-8.03,2.2-15.53,4.14-22.49,5.83l-13.86,3.41c-4.03.95-8.01,1.92-11.93,2.92-3.92.99-7.66,2.09-11.22,3.3-3.56,1.21-6.88,2.55-9.96,4.02-3.08,1.47-5.74,3.15-7.97,5.06-2.24,1.91-4,4.05-5.28,6.43-1.28,2.38-1.92,5.08-1.92,8.09v11l-12.54-23.98h51.96v82.5H0Z"/>
      <path class="cls-1" d="M338.24,321.2c1.25-19.95,3.52-38.46,6.82-55.55,3.3-17.09,7.87-33.17,13.7-48.24s13-29.37,21.5-42.9c8.51-13.53,18.57-26.71,30.2-39.55,11.62-12.83,24.9-25.57,39.82-38.22,14.92-12.65,31.7-25.65,50.33-39l12.1,32.45h-230.01V6.6h260.48v86.9c-11.15,11.81-21.08,23.16-29.81,34.04-8.73,10.89-16.44,21.8-23.15,32.73-6.71,10.93-12.5,22.11-17.38,33.55-4.88,11.44-9.06,23.63-12.54,36.58-3.48,12.94-6.36,26.86-8.63,41.75-2.27,14.89-4.14,31.24-5.61,49.06h-107.8Z"/>
    </g>
    <g>
      <path class="cls-1" d="M293.7,311.91v9.64h-5.89v-18.65h5.89v5.81l-.02.03c.17-1.04.44-1.96.8-2.75.36-.79.81-1.45,1.35-1.98.54-.54,1.16-.94,1.87-1.21.71-.27,1.5-.41,2.37-.41.98,0,1.84.17,2.57.52.73.34,1.34.85,1.84,1.53.5.68.87,1.52,1.12,2.54.25,1.02.37,2.19.37,3.54v11.04h-5.89v-9.77c0-.73-.06-1.36-.19-1.9-.12-.54-.31-.99-.57-1.35-.25-.36-.57-.63-.96-.8-.38-.18-.82-.27-1.34-.27-.36,0-.69.04-1,.13-.3.08-.57.21-.82.38-.25.16-.47.37-.66.63-.19.25-.34.54-.47.87-.12.33-.22.7-.29,1.11-.06.41-.09.85-.09,1.34Z"/>
      <path class="cls-1" d="M267.05,312.21c0-.99.11-1.93.32-2.8.21-.88.52-1.68.92-2.4.4-.73.89-1.39,1.46-1.95.57-.58,1.21-1.06,1.93-1.46.72-.39,1.49-.7,2.33-.9.84-.21,1.73-.31,2.67-.31s1.82.1,2.66.31c.84.21,1.62.51,2.33.9.72.39,1.36.88,1.93,1.46.57.57,1.06,1.22,1.46,1.95.4.73.71,1.53.92,2.4.21.87.32,1.8.32,2.8s-.11,1.93-.32,2.81c-.21.87-.52,1.67-.92,2.4-.4.73-.89,1.38-1.46,1.95-.57.57-1.21,1.06-1.93,1.46-.71.39-1.48.7-2.33.9-.83.21-1.72.31-2.66.31s-1.82-.1-2.67-.31c-.84-.21-1.62-.51-2.33-.9-.71-.4-1.35-.89-1.93-1.46-.57-.57-1.06-1.23-1.46-1.95s-.71-1.53-.92-2.4c-.21-.88-.32-1.82-.32-2.81ZM272.99,312.21c0,.77.08,1.46.25,2.05.16.59.4,1.09.72,1.5.31.4.7.71,1.16.91.46.21.98.31,1.57.31s1.12-.1,1.57-.3c.46-.21.84-.52,1.15-.92.31-.41.55-.9.72-1.5.16-.59.25-1.27.25-2.05s-.08-1.46-.25-2.05c-.16-.59-.4-1.09-.72-1.49-.31-.41-.69-.71-1.15-.91-.46-.21-.98-.31-1.57-.31s-1.11.1-1.57.31c-.46.2-.84.51-1.16.91-.32.4-.56.9-.72,1.49-.16.59-.25,1.27-.25,2.05Z"/>
      <path class="cls-1" d="M265.52,302.89v18.65h-5.89v-18.65h5.89ZM265.55,296.51v4.53h-5.96v-4.53h5.96Z"/>
      <path class="cls-1" d="M258.02,321.4c-.83.22-1.6.38-2.33.49-.72.11-1.39.16-2.02.16-1.07,0-2.01-.16-2.83-.47-.81-.31-1.49-.78-2.04-1.4-.54-.62-.95-1.39-1.23-2.32-.27-.93-.41-2.01-.41-3.25v-16.02h5.89v16.03c0,.5.04.92.13,1.28.09.36.22.65.41.88.19.22.42.39.71.51.29.11.63.17,1.03.17.32,0,.7-.04,1.13-.11.43-.07.95-.18,1.55-.33v4.38ZM258.02,307.49h-13.08v-4.6h13.08v4.6Z"/>
      <path class="cls-1" d="M243.38,302.89v18.65h-5.89v-18.65h5.89ZM243.41,296.51v4.53h-5.96v-4.53h5.96Z"/>
      <path class="cls-1" d="M222.66,296.51v12.09l-.02.03c.18-1.02.45-1.91.8-2.68.35-.78.78-1.43,1.28-1.95.51-.53,1.08-.93,1.73-1.2.65-.27,1.38-.41,2.17-.41.72,0,1.4.11,2.05.33.65.21,1.24.52,1.78.93.55.4,1.04.89,1.47,1.47.43.58.8,1.23,1.1,1.96.3.73.54,1.52.7,2.39.16.86.24,1.78.24,2.75s-.08,1.89-.24,2.75c-.16.86-.4,1.66-.7,2.39-.3.73-.67,1.38-1.1,1.96-.43.58-.92,1.07-1.47,1.48-.54.4-1.14.71-1.78.92-.64.22-1.33.33-2.05.33-.79,0-1.51-.13-2.17-.41-.65-.27-1.23-.67-1.74-1.19-.5-.53-.93-1.18-1.28-1.96-.35-.78-.61-1.67-.8-2.69l.02.03v5.71h-5.89v-25.04h5.89ZM222.66,312.21c0,.52.04,1,.11,1.44.07.44.18.84.32,1.19.14.36.32.67.53.94.21.27.46.5.73.68.28.18.58.32.92.41.34.1.71.14,1.11.14.6,0,1.13-.1,1.59-.3.46-.2.84-.5,1.14-.9.31-.4.54-.9.69-1.5.16-.6.24-1.3.24-2.1s-.08-1.49-.24-2.09c-.15-.6-.38-1.1-.69-1.5-.3-.4-.69-.7-1.15-.91-.46-.2-.99-.3-1.59-.3-.4,0-.77.05-1.11.14-.34.1-.65.23-.92.41-.27.18-.51.41-.73.68-.21.27-.38.58-.53.94-.14.36-.25.75-.32,1.19-.07.43-.11.91-.11,1.43Z"/>
      <path class="cls-1" d="M214.86,302.89v18.65h-5.89v-18.65h5.89ZM214.89,296.51v4.53h-5.96v-4.53h5.96Z"/>
      <path class="cls-1" d="M194.9,311.91v9.64h-5.89v-25.04h5.89v12.2l-.02.03c.17-1.04.44-1.96.8-2.75.36-.79.81-1.45,1.34-1.98.54-.54,1.16-.94,1.87-1.21.71-.27,1.5-.41,2.37-.41.98,0,1.84.17,2.57.52.73.34,1.34.85,1.83,1.53.5.68.87,1.52,1.12,2.54.25,1.02.37,2.19.37,3.54v11.04h-5.89v-9.77c0-.73-.06-1.36-.19-1.9-.13-.54-.31-.99-.57-1.35-.25-.36-.57-.63-.96-.8-.38-.18-.82-.27-1.34-.27-.36,0-.69.04-1,.13-.3.08-.57.21-.82.38-.25.16-.47.37-.66.63-.19.25-.34.54-.47.87-.13.33-.22.7-.29,1.11-.06.41-.09.85-.09,1.34Z"/>
      <path class="cls-1" d="M187.36,302.89l-5.6,9.29v-.18l6.16,9.54h-6.78l-3.92-6.72h.09l-3.8,6.72h-6.44l5.81-9.47v.18l-5.88-9.36h6.78l3.65,6.65h-.09l3.59-6.65h6.43Z"/>
      <path class="cls-1" d="M149.01,297.35h16.9v5.18h-11.07l.41-.42v5.37l-.41-.42h10.1v4.82h-10.1l.41-.42v5.34l-.41-.42h11.35v5.18h-17.19v-24.19Z"/>
    </g>
    <g>
      <path class="cls-1" d="M267,282.99v8.16h-5.89v-18.65h5.89v6.84l-.02.03c.14-1.05.35-2,.64-2.84.29-.85.66-1.57,1.13-2.17.46-.6,1.02-1.06,1.68-1.38.66-.32,1.43-.48,2.32-.48h1.23v5.52h-2.5c-.88,0-1.61.1-2.18.3-.57.2-1.03.5-1.37.9-.34.41-.58.92-.72,1.55-.14.63-.2,1.37-.2,2.23Z"/>
      <path class="cls-1" d="M240.93,279.5c0-1.16.21-2.2.63-3.13.43-.92,1.04-1.71,1.83-2.36.8-.65,1.76-1.15,2.89-1.5,1.14-.35,2.42-.52,3.84-.52s2.74.18,3.87.55c1.14.36,2.1.89,2.88,1.58.78.69,1.38,1.53,1.79,2.54.41,1,.62,2.15.62,3.43v11.06h-5.89v-4.75h.03c-.13.54-.31,1.05-.53,1.51-.22.47-.5.9-.81,1.29-.32.39-.67.74-1.07,1.04-.4.3-.84.56-1.31.77-.47.21-.97.37-1.51.47-.54.11-1.1.17-1.69.17-.92,0-1.76-.13-2.51-.4-.75-.26-1.39-.63-1.93-1.1-.54-.48-.95-1.05-1.24-1.72-.29-.67-.44-1.42-.44-2.24,0-.89.18-1.69.53-2.39.36-.71.88-1.3,1.57-1.78.69-.49,1.52-.86,2.51-1.12.99-.26,2.11-.39,3.38-.39h5.17v3.18h-4.37c-.47,0-.88.04-1.24.12-.35.08-.65.2-.9.36-.24.16-.42.36-.54.59-.13.23-.19.5-.19.8s.06.58.18.82c.12.24.3.45.54.61.24.16.53.29.86.38.34.09.74.13,1.18.13.41,0,.8-.04,1.18-.11.38-.08.73-.19,1.05-.32.32-.14.62-.31.88-.5.27-.2.49-.41.67-.65.19-.24.33-.49.43-.77.1-.28.15-.57.15-.87v-4.19c0-.58-.08-1.09-.23-1.54-.15-.46-.37-.84-.66-1.16-.29-.32-.64-.56-1.06-.72-.42-.16-.91-.25-1.46-.25s-1.03.07-1.44.21c-.4.14-.73.34-.99.61-.26.27-.46.59-.58.97-.12.38-.19.81-.19,1.29h-5.86Z"/>
      <path class="cls-1" d="M226.3,282.29c0,.76.09,1.44.28,2.04.19.6.47,1.1.83,1.52.36.42.8.74,1.31.96.52.21,1.1.32,1.76.32.43,0,.82-.05,1.18-.14.37-.1.7-.25.99-.45.3-.2.56-.44.79-.74.22-.29.42-.64.59-1.03h5.43c-.26,1.07-.67,2.03-1.23,2.88s-1.22,1.58-2.01,2.17c-.79.59-1.69,1.05-2.69,1.36-1,.32-2.07.47-3.22.47-1.42,0-2.72-.24-3.89-.71-1.17-.48-2.18-1.15-3.02-2.01-.84-.86-1.49-1.9-1.95-3.1-.46-1.21-.69-2.55-.69-4.02s.23-2.8.69-4c.46-1.21,1.1-2.24,1.93-3.1.83-.86,1.82-1.53,2.99-2,1.16-.47,2.44-.71,3.85-.71s2.68.24,3.82.71c1.14.47,2.12,1.13,2.94,1.99.82.85,1.45,1.88,1.9,3.09.45,1.21.68,2.55.68,4.03,0,.23,0,.46-.02.69-.01.24-.03.47-.06.7h-15.35v-3.22h12.16l-2.18,3.15c.02-.24.03-.47.04-.69.01-.23.02-.44.02-.64,0-.9-.08-1.68-.25-2.35-.16-.67-.41-1.23-.74-1.68-.33-.45-.73-.79-1.22-1.01-.48-.22-1.05-.34-1.69-.34s-1.2.11-1.69.32c-.49.21-.9.53-1.23.95-.33.41-.59.92-.76,1.53-.17.61-.26,1.31-.26,2.1v.96Z"/>
      <path class="cls-1" d="M219.22,266.11v25.04h-5.89v-25.04h5.89Z"/>
      <path class="cls-1" d="M199,281.82c0,.77.08,1.46.25,2.05.16.59.4,1.09.72,1.5.32.4.7.71,1.16.91.46.21.98.31,1.57.31.49,0,.91-.07,1.28-.21.37-.14.68-.34.95-.6.27-.26.48-.57.65-.94.17-.37.3-.78.38-1.23h5.86c-.15,1.2-.47,2.3-.97,3.28-.5.99-1.15,1.84-1.95,2.55-.79.7-1.71,1.25-2.76,1.64-1.05.38-2.2.57-3.44.57-.94,0-1.82-.1-2.66-.31-.84-.21-1.62-.51-2.33-.91-.71-.4-1.35-.89-1.93-1.45-.57-.58-1.06-1.23-1.46-1.96-.4-.73-.71-1.53-.92-2.4-.21-.88-.32-1.82-.32-2.81s.11-1.93.32-2.8c.21-.87.52-1.67.92-2.4.4-.73.89-1.39,1.46-1.95.57-.58,1.21-1.06,1.93-1.46.72-.39,1.49-.7,2.33-.9.84-.21,1.73-.31,2.66-.31,1.25,0,2.4.19,3.44.58,1.06.38,1.98.93,2.77,1.63.79.7,1.44,1.55,1.94,2.55.5.99.83,2.08.97,3.28h-5.86c-.08-.45-.21-.86-.38-1.23-.17-.37-.39-.68-.65-.94-.27-.26-.58-.46-.95-.6-.37-.14-.79-.21-1.28-.21-.59,0-1.11.1-1.57.31-.46.2-.84.51-1.16.91-.31.4-.55.9-.72,1.49-.16.59-.25,1.27-.25,2.05Z"/>
      <path class="cls-1" d="M185.66,282.13v-9.64h5.89v18.65h-5.89v-5.81l.02-.03c-.18,1.04-.44,1.96-.8,2.75-.36.79-.81,1.45-1.35,1.99-.54.53-1.16.93-1.87,1.2-.71.27-1.5.41-2.37.41-.98,0-1.84-.17-2.57-.51-.73-.34-1.35-.85-1.84-1.53-.49-.68-.86-1.53-1.11-2.55-.25-1.02-.37-2.19-.37-3.54v-11.04h5.89v9.77c0,.73.06,1.36.19,1.9.12.54.31.98.57,1.35.25.36.57.63.95.81.38.17.83.26,1.34.26.36,0,.69-.04.99-.13.3-.09.58-.22.83-.38.25-.17.47-.38.65-.63.19-.25.35-.54.47-.87.13-.33.22-.7.29-1.11.07-.41.1-.86.1-1.34Z"/>
      <path class="cls-1" d="M171.5,266.96v24.19h-8.49l-8.09-18.24h.04s0,18.24,0,18.24h-5.96v-24.19h9l7.58,16.97-.04.02v-16.99h5.96Z"/>
    </g>
    <g>
      <path class="cls-1" d="M240.26,238.05h5.89v25.04h-5.89v-5.71l.02-.04c-.18,1.02-.45,1.91-.8,2.69s-.78,1.43-1.29,1.96c-.5.53-1.08.92-1.74,1.19-.65.27-1.38.41-2.16.41-.72,0-1.41-.11-2.06-.33-.64-.21-1.24-.52-1.79-.92-.54-.41-1.03-.9-1.46-1.48-.43-.58-.8-1.23-1.11-1.96-.3-.73-.53-1.53-.69-2.39-.16-.86-.25-1.78-.25-2.75s.08-1.89.25-2.75c.16-.86.39-1.66.69-2.39.3-.73.67-1.38,1.11-1.96.43-.58.92-1.07,1.46-1.47.55-.41,1.14-.72,1.79-.93.65-.22,1.33-.33,2.06-.33.8,0,1.52.13,2.16.41.65.27,1.23.67,1.74,1.2.51.53.94,1.18,1.29,1.95.35.77.62,1.67.8,2.68l-.02-.03v-12.09ZM240.26,253.76c0-.52-.04-.99-.11-1.43-.07-.44-.18-.84-.32-1.19-.14-.36-.32-.67-.53-.94-.21-.27-.45-.5-.73-.68-.27-.18-.58-.32-.91-.41-.34-.1-.71-.14-1.11-.14-.6,0-1.14.1-1.6.3-.46.2-.84.5-1.14.9-.3.4-.54.9-.69,1.5-.15.6-.23,1.29-.23,2.09s.08,1.49.23,2.1c.16.6.39,1.1.69,1.5.31.4.69.7,1.15.91.46.2.99.3,1.59.3.4,0,.77-.05,1.11-.14.34-.1.64-.23.91-.41.28-.18.52-.41.73-.68.21-.27.39-.58.53-.94s.25-.75.32-1.19c.07-.44.11-.92.11-1.44Z"/>
      <path class="cls-1" d="M225.4,238.05v25.04h-5.89v-25.04h5.89Z"/>
      <path class="cls-1" d="M211.09,254.93v8.16h-5.89v-18.65h5.89v6.84l-.02.03c.14-1.05.35-2,.63-2.84.29-.85.66-1.57,1.13-2.17.46-.6,1.02-1.06,1.68-1.38.66-.32,1.43-.48,2.32-.48h1.24v5.52h-2.5c-.88,0-1.61.1-2.18.3-.58.2-1.03.5-1.37.9-.34.41-.58.92-.72,1.55-.13.63-.2,1.37-.2,2.23Z"/>
      <path class="cls-1" d="M184.44,253.76c0-.99.11-1.93.32-2.8.21-.87.52-1.67.92-2.4.4-.73.89-1.39,1.45-1.95.57-.58,1.21-1.06,1.93-1.46.72-.39,1.49-.7,2.33-.9.84-.21,1.73-.31,2.67-.31s1.82.1,2.67.31c.84.21,1.62.51,2.33.9s1.36.88,1.93,1.46c.57.57,1.06,1.22,1.46,1.95.4.73.71,1.53.92,2.4.21.87.32,1.8.32,2.8s-.11,1.93-.32,2.81c-.21.88-.52,1.68-.92,2.4-.4.73-.89,1.38-1.46,1.96-.57.57-1.21,1.05-1.93,1.45-.71.39-1.49.7-2.33.91-.83.21-1.72.31-2.67.31s-1.82-.1-2.67-.31c-.84-.21-1.62-.51-2.33-.91-.71-.4-1.35-.89-1.93-1.45-.57-.58-1.05-1.23-1.45-1.96-.4-.73-.71-1.53-.92-2.4-.21-.88-.32-1.82-.32-2.81ZM190.38,253.76c0,.77.08,1.46.24,2.05.16.59.4,1.09.72,1.5.32.4.7.71,1.16.91.46.21.98.31,1.57.31s1.12-.1,1.57-.3c.46-.21.84-.52,1.15-.92.32-.41.56-.9.72-1.5.16-.59.25-1.27.25-2.05s-.08-1.46-.25-2.05c-.16-.59-.4-1.09-.72-1.49-.31-.41-.69-.71-1.15-.91-.46-.21-.98-.31-1.57-.31s-1.11.1-1.57.31c-.46.2-.84.51-1.16.91-.32.4-.55.9-.72,1.49-.16.59-.24,1.27-.24,2.05Z"/>
      <path class="cls-1" d="M163.04,238.9h8.16l3.45,20.28h-.03l3.95-20.28h6.38l-5.74,24.19h-8.68l-3.57-19.64h.03l-3.6,19.64h-8.68l-5.7-24.19h6.67l3.9,20.28h-.03l3.5-20.28Z"/>
    </g>
  </g>
</svg>