<?xml version="1.0" encoding="UTF-8"?>
<svg id="Layer_2" data-name="Layer 2" xmlns="http://www.w3.org/2000/svg" viewBox="0 0 1064.77 1002.39">
  <defs>
    <style>
      .cls-1 {
        fill: #fff;
      }
    </style>
  </defs>
  <g id="Layer_1-2" data-name="Layer 1">
    <g>
      <path class="cls-1" d="M328.52,421.55c-.73-.96-1.64-1.67-2.75-2.16-1.09-.48-2.35-.73-3.79-.73-.96,0-1.84.11-2.64.34-.81.23-1.54.56-2.2.99-.65.43-1.22.97-1.74,1.61-.5.65-.91,1.39-1.25,2.24-.34.85-.59,1.8-.77,2.85-.17,1.04-.26,2.17-.26,3.41s.09,2.38.26,3.43c.18,1.05.43,2,.77,2.85.34.85.75,1.59,1.25,2.24.51.65,1.09,1.18,1.74,1.61.66.43,1.39.76,2.2.99.81.23,1.69.34,2.64.34,1.44,0,2.7-.24,3.79-.73,1.09-.48,2-1.2,2.72-2.16.74-.96,1.29-2.15,1.65-3.57.38-1.44.57-3.11.57-5s-.19-3.56-.57-4.98c-.36-1.43-.91-2.62-1.63-3.57Z"/>
      <path class="cls-1" d="M448.51,421.68c-.74-.97-1.65-1.7-2.74-2.18-1.09-.5-2.34-.75-3.75-.75s-2.64.25-3.73.75c-1.09.48-2.01,1.21-2.76,2.18-.75.96-1.33,2.14-1.72,3.55-.39,1.41-.58,3.04-.58,4.88s.19,3.47.58,4.88c.39,1.41.96,2.6,1.72,3.57.75.96,1.67,1.68,2.76,2.18,1.09.5,2.33.75,3.73.75s2.66-.24,3.75-.73c1.09-.5,2-1.23,2.74-2.2.75-.97,1.33-2.16,1.72-3.57.39-1.41.59-3.04.59-4.88s-.2-3.47-.59-4.88c-.39-1.41-.96-2.6-1.72-3.55Z"/>
      <path class="cls-1" d="M240.01,360.02c1.09.5,2.33.75,3.73.75s2.66-.24,3.75-.73c1.09-.5,2-1.23,2.75-2.2.75-.97,1.33-2.16,1.72-3.57.39-1.41.58-3.04.58-4.88s-.19-3.47-.58-4.88c-.39-1.41-.96-2.6-1.72-3.55-.74-.97-1.66-1.7-2.75-2.18-1.09-.5-2.34-.75-3.75-.75s-2.64.25-3.73.75c-1.09.48-2.01,1.21-2.76,2.18-.75.96-1.33,2.14-1.72,3.55-.39,1.41-.59,3.04-.59,4.88s.2,3.47.59,4.88c.39,1.41.96,2.6,1.72,3.57.75.96,1.68,1.68,2.76,2.18Z"/>
      <path class="cls-1" d="M637.9,360.71c.63-.47,1.17-.99,1.6-1.55.44-.56.78-1.18,1.03-1.84.24-.67.36-1.37.36-2.08v-1.37h-10.13c-1.12,0-2.11.09-2.97.28-.85.19-1.56.47-2.14.85-.56.38-1,.85-1.29,1.41-.3.55-.44,1.18-.44,1.9s.14,1.38.43,1.96c.3.58.72,1.06,1.29,1.45.56.39,1.25.69,2.06.91.82.2,1.76.3,2.81.3.98,0,1.92-.09,2.8-.26.9-.19,1.73-.44,2.51-.77.77-.34,1.47-.73,2.1-1.19Z"/>
      <path class="cls-1" d="M1064.75,398.34c-.12-1.17-5.49-.87-6.42-1.94-.51-.59.08-2.53-.28-2.88-.76-.73-3.89.24-4.33-.15-.64-.56,1.24-3.93,1.01-4.88-.43-1.75-3.48-.96-3.2-2.81l4.42-.58c-.66-5.43-3.5-6.2-4.42-11.55.5-1.43.84-2.83,1.1-4.41-2.37-8.67-4.25-3.47-6.59-4.9-.22-.13-3.24-3.67-3.32-3.91-.42-.95-.79-.96-1.1,0,.11-2.56-.26-4.76-1.1-6.61-.25-.46.59-2.44-.22-3.11-.67-.56-2.54.41-3.12-.9-2.24-5.1-3.45-14.42-5.73-20.51-35.23-94.1-124.95-166.85-226.56-171.51-2.06-.97-4.54-.91-6.6,0-22.02-.45-40.22,1.06-61.66,5.51-9.56,1.98-12.58.13-19.82,6.61-.45.41-4.16,1.62-5.5,2.2-2.91,1.27-5.98,2.37-9.1,3.33-7.61-12.4-15.93-24.31-24.92-35.68-3.03-5.54-6.29-10.86-9.78-15.8-15.73-22.29-39.11-39.57-58.5-58.22-3.73-3.59-7.29-9.37-11.67-12.56-5.06-3.68-12.92-5.31-18.9-8.63-6.24-3.46-12.19-9.46-18.76-12.07-4.34-1.73-9.36-2.1-13.82-3.8-8.91-3.39-47.59-21.29-53.13-20.76-2.42.23-3.65,1.89-5.54,2.24-8.45,1.59-35.55-6.09-46.35-7.49-24.41-3.18-48.41-3.16-72.36-1.3-14.59.86-28.95,2.55-43.03,5.07-3.64.55-7.29,1.11-10.94,1.71-11.29,1.83-22.27,5.49-33.71,6.48v2.77c-2.74.86-5.47,1.75-8.18,2.67-8.78,2.22-16.2,3.83-26.24,5.83-2.33.46-20.95,7.72-21.62,8.67-.94,1.35,1.24,4,.24,5.56-5.65,2.87-11.23,5.87-16.71,9.02-2.38,1.14-4.52,2.22-6,3.12-22.04,13.47-52.75,35.21-71.23,52.65-2.69,2.05-4.52,4.25-5.51,6.61-11.23,11.48-21.14,24.67-30.83,37.44-1.39.26-3.03,1.75-4.17,3.49.12-.49.08-.95-.24-1.29.5-.71,2.62-1.13,2.2-3.3-.5.32-1.99,1.3-2.19,1.1l-.56-2.2c-.69.33-1.04,1.35-1.41,1.91-.09.07-.18.16-.25.29-2.92,2.19-8.22,3.17-10.04,6.03-1.24,1.94.11,3.23-.45,4.92-.77,2.31-2.81,3.4-3.83,6.67-.23.73-1.02,1.61-1.1,2.2-.68,4.88,4.81.78,4.4-2.2,2.21-1.61,3.82-3.95,6.61-4.41.52-.61,1-1.23,1.46-1.86-.24.61-.38,1.23-.36,1.86-10.24,14.51-21.74,30.96-29.36,46.6-1.46,3-2.23,10.54-4.69,13.28-.98,1.09-2.76.41-3.16.85-.62.68.01,3-.75,4.29-.69,1.18-2.52.82-2.78,1.06v-1.1c2.93-9.04,7.86-17.33,11.01-26.43.56-1.61,2.74-3.23,2.19-5.51-1.63.37-2.42,2.08-3.29,3.3-7.61,10.74-13.4,24.63-16.52,37.44-3.17,3.9-5.51,9.91-7.64,12.73-2.14,2.81-6.67,1.56-3.27,8.45.41.83,2.06.87,2.14,1.57.9,8.17-5.86,7.62-6.52,9.91-.84,2.89,2.65,5.92,2.9,7.74.08.6-.67,10.53-.82,11.81-.11.94-5.53,13.4-6.05,13.96-1.09,1.19-5.07-.29-4.93,1.56.15,1.95,6.34,1.68-.02,10.46-2.03-.35-6.35-.13-4.4,2.2.24.28,1.79-.24,2.2,0,1.45.86.41,6.72,1.1,8.81.04.13,1.72.58,2.05,1.86.14.53.97,10.09.95,10.63-.2,4.74-5.99,17.27-7.23,22.46-.78,3.27,1.42,2.2,1.73,2.74,1.17,2.07-2.44,7.14-3.01,9.66,4.31-1.45,4.03,3.73,3.29,6.97-.16.7-3.42.74-2.2,4.61.45,1.42,4.08-.77,3.32,2.18l-7.67,6.66,3.26,3.27c-2.88,1.85-6.95,12.33-5.48,14.87.11.18,3.33-1.98,3.14,1.5-.17,3.1-4.26,3.13-4.28,5.65-.02,3.22,6.64,3.3,8.83,4.97.81-.02,1.19.33,1.1,1.1.19.25-.37,1.78.06,2.1.74.55,4.1-.25,5.83.27,3.78,1.13.16,4.06-.12,6.09-.18,1.28.82,2.11.84,2.56,1.94,1.41.36,2.73-1.1,3.3-.16-.02-.54-1-1.08-1.12-.03.55-.09,1.11-.05,1.67.59,8.89,7.71,8.8,7.47,17.88-.07,2.48-3.16,3-2.86,5,.09.6,3.17,6.09,3.77,6.27l7.05-3.28c6.35,27.43,17.06,55.56,30.27,80.42,40.06,75.43,96.73,127.47,175.67,160.18,44.66,18.5,95.5,27.74,145.86,26.52,2.91.07,5.83.11,8.76.11,66,0,127.91-17.49,181.37-48.09-25.3,32.73-40.35,73.77-40.35,118.34,0,2.57.07,5.13.16,7.67-3.01,61.45,37.11,124.83,84.03,161.44.45,1.17,2.19,1.52,3.3,1.1-.81,1.19-.08,1.92,2.2,2.21,4.84,3.55,5.26,3.8,8.35,7.7,1.48,1.87,31.7,11.28,36.79,13.22,1.01.62,1.75.62,2.21,0,2.84,1.57,5.77,2.31,8.81,2.21,5.04,1.14,10.26,1.62,15.41,2.2,2.6,1.65,4.44,2.01,5.5,1.1,50.16,4.67,103.99-4.8,142.31-37.4,5.13-4.37,10.23-12.07,17.33-13.26l-2.19-1.1c2.33-5.11,7.67-7.77,11.57-12.09,7.16-7.92,10.97-13.97,15.51-22.5,1.28-1.79,2.52-3.61,3.74-5.44,5.01-6.04,13.35-14.41,14-19.01,1.79-12.72,10.73-26.48,13.54-42.26l.38-4.89c1.49-6.96,2.63-14.05,3.35-21.26.79-3.97,1.29-7.84.77-10.58.14-3,.21-6.01.21-9.04,0-44.48-15-85.46-40.21-118.15,3.46-.94,6.8-1.92,7.55-2.26,1.37-.63,5.72-4.15,8.13-5.61,1.7-.07,3.16-1.17,4.4-3.3,1.66.69,4.78-.3,5.5-2.2,7.63-3.59,21.6-7.64,27.46-11.64,3.16-2.16,5.75-6.23,8.97-8.65,10.07-7.55,11.98-8.97,20.8-17.74,7.58-7.53,21.74-18.05,27.57-25.6,2.54-3.29,5.27-13.91,9.89-20.64,3.86-5.63,12.55-14.58,15.5-20.84,3.5-7.43,2.2-6.04,7.01-12.78,7.79-10.89,10.99-23.58,17.73-34.05.8-1.25,3.34-1.56,3.68-2.91.41-1.61-2.42-4.32-1.64-7.1.81-2.88,4.8-3.88,5.05-4.97.26-1.17-2.01-2.63-2.19-4.38-.04-.43.13-8.1.21-8.52.11-.53,4.38-9.3,4.74-9.7,1.22-1.37,2.57.11,3.85.08-2.31-4.48-3.24-8.37,3.31-8.82-2.29-3.07-3.06-7.18-3.3-11,2.02-2.28,2.02-3.38,0-3.3.4-6.87,4.5-19.51,6.61-25.9.21-.63-2.05-.35-2.26-1.23-.45-1.94.73-4.43.94-6.49.11-1.11-.95-2.45-.89-3.16.04-.62,4.94-2.81,5.5-4.52-4.74-1.14-.05-3.59.69-7.11.64-3.01-.67-4.34-.58-6.16.1-1.87,2.37-2.97,2.11-5.43ZM89.21,155.49c-.71.55-1.5,1.23-2.21,2.01.4-.66.77-1.33,1.11-2.01.49-.31,1.07-.85,1.55-1.47-.21.5-.37,1-.45,1.47ZM735.52,166.5c.58.21,1.3.28,2,.21-.61.29-1.26.58-2,.89-1.07-.05-2.15-.02-3.21.1,1.13-.36,2.21-.76,3.21-1.2ZM659.27,327.14h14.05v16.14c.33-2.4.82-4.58,1.47-6.53.69-2.02,1.58-3.74,2.69-5.17,1.1-1.43,2.44-2.52,4.02-3.29,1.58-.77,3.41-1.15,5.53-1.15h2.95v13.16h-5.97c-2.1,0-3.84.24-5.2.71-1.37.47-2.46,1.19-3.27,2.16-.8.97-1.38,2.2-1.71,3.69-.32,1.49-.49,3.26-.49,5.31v19.48h-14.05v-44.5ZM564.63,339.82c1.09-2.88,2.62-5.35,4.6-7.41,1.98-2.06,4.35-3.65,7.12-4.78,2.77-1.13,5.83-1.7,9.18-1.7s6.39.57,9.12,1.7c2.73,1.12,5.07,2.7,7,4.74,1.95,2.03,3.46,4.49,4.52,7.37,1.08,2.88,1.61,6.08,1.61,9.61,0,.54-.01,1.09-.04,1.65-.03.57-.08,1.12-.14,1.67h-31.27c.11.96.28,1.86.54,2.68.45,1.43,1.12,2.64,1.98,3.63.86,1,1.9,1.76,3.13,2.28,1.24.51,2.64.77,4.2.77,1.02,0,1.96-.11,2.82-.34.88-.24,1.66-.6,2.36-1.07.71-.47,1.34-1.06,1.88-1.76.54-.7,1.01-1.52,1.41-2.46h12.96c-.63,2.56-1.61,4.85-2.93,6.88-1.32,2.03-2.92,3.76-4.8,5.19-1.88,1.41-4.02,2.5-6.41,3.25-2.39.75-4.95,1.13-7.69,1.13-3.39,0-6.48-.57-9.28-1.7-2.8-1.14-5.2-2.74-7.21-4.8-2.01-2.06-3.56-4.53-4.66-7.41-1.09-2.89-1.64-6.09-1.64-9.59s.55-6.68,1.64-9.55ZM450,327.14h14.05v23.31c0,1.74.15,3.25.44,4.54.3,1.28.75,2.35,1.35,3.21.61.86,1.36,1.51,2.26,1.94.91.42,1.98.63,3.21.63.86,0,1.65-.1,2.36-.3.73-.22,1.39-.52,1.98-.91.59-.4,1.11-.9,1.55-1.49.46-.61.83-1.3,1.13-2.08.31-.79.54-1.68.69-2.64.16-.98.24-2.05.24-3.21v-22.99h14.05v44.5h-14.05v-13.72c-.42,2.4-1.04,4.52-1.88,6.35-.86,1.88-1.93,3.46-3.21,4.74-1.28,1.26-2.76,2.22-4.46,2.87-1.7.65-3.58.97-5.65.97-2.34,0-4.39-.4-6.13-1.21-1.75-.82-3.22-2.04-4.4-3.65-1.17-1.63-2.05-3.65-2.64-6.07-.59-2.42-.89-5.23-.89-8.44v-26.34ZM391.83,313.93h21.47l17.98,40.26v-40.26h14.21v57.72h-20.26l-19.19-43.28v43.28h-14.21v-57.72ZM322.74,342.83c.39-2.06.94-3.96,1.66-5.69.73-1.74,1.61-3.3,2.64-4.68,1.04-1.39,2.2-2.56,3.49-3.51,1.3-.97,2.72-1.71,4.26-2.22,1.55-.52,3.18-.79,4.9-.79,1.9,0,3.62.32,5.17.97,1.56.65,2.94,1.6,4.14,2.87,1.21,1.25,2.23,2.81,3.07,4.66.81,1.79,1.43,3.86,1.86,6.2v-28.72h14.05v59.74h-14.05v-13.51c-.43,2.34-1.05,4.42-1.86,6.22-.83,1.86-1.86,3.42-3.07,4.68-1.2,1.25-2.58,2.2-4.14,2.85-1.56.65-3.28.97-5.17.97-1.72,0-3.36-.26-4.9-.79-1.53-.51-2.95-1.24-4.26-2.2-1.29-.97-2.46-2.15-3.49-3.53-1.04-1.39-1.92-2.95-2.64-4.68-.71-1.75-1.26-3.65-1.66-5.71-.39-2.06-.58-4.24-.58-6.56s.19-4.5.58-6.56ZM304.44,311.91h14.05v59.74h-14.05v-59.74ZM152.15,313.93l9.26,48.15,8.32-48.15h19.47l8.2,48.15,9.38-48.15h15.22l-13.7,57.72h-20.71l-8.48-46.64-8.56,46.64h-20.71l-13.6-57.72h15.9ZM178.44,452.37h-41.01v-57.72h40.32v12.35h-25.43v10.8h23.13v11.5h-23.13v10.72h26.11v12.35ZM214.08,452.37l-9.23-15.83-8.95,15.83h-15.36l13.73-22.39-13.89-22.11h16.19l8.59,15.66,8.45-15.66h15.34l-13.23,21.94,14.56,22.56h-16.19ZM227.21,366.48c-1.36-1.37-2.52-2.93-3.47-4.66-.96-1.74-1.69-3.65-2.2-5.73-.51-2.1-.77-4.33-.77-6.7s.26-4.59.77-6.68c.51-2.09,1.24-4,2.2-5.73.96-1.75,2.11-3.3,3.47-4.66,1.36-1.37,2.89-2.53,4.6-3.47,1.71-.94,3.57-1.66,5.57-2.16,2-.5,4.12-.75,6.36-.75s4.35.25,6.36.75c2,.5,3.86,1.22,5.57,2.16,1.71.94,3.24,2.1,4.6,3.47,1.36,1.36,2.52,2.91,3.47,4.66.96,1.74,1.69,3.65,2.2,5.73.51,2.07.77,4.3.77,6.68s-.26,4.6-.77,6.7c-.51,2.09-1.24,4-2.2,5.73s-2.12,3.29-3.49,4.66c-1.36,1.36-2.89,2.52-4.6,3.47-1.7.94-3.55,1.66-5.55,2.16-1.99.5-4.11.75-6.36.75s-4.35-.25-6.36-.75c-2-.5-3.86-1.22-5.57-2.16-1.7-.95-3.23-2.11-4.6-3.47ZM276.17,452.37h-14.05v-23.31c0-1.74-.15-3.24-.44-4.52-.3-1.29-.75-2.37-1.35-3.23-.61-.86-1.37-1.5-2.28-1.92-.9-.43-1.96-.65-3.19-.65-.86,0-1.65.11-2.38.32-.71.2-1.37.5-1.96.91-.59.39-1.12.89-1.57,1.49-.44.59-.82,1.29-1.13,2.08-.3.78-.52,1.66-.69,2.64-.15.97-.22,2.03-.22,3.19v22.99h-14.05v-59.74h14.05v28.96c.42-2.4,1.04-4.52,1.88-6.35.86-1.88,1.93-3.46,3.21-4.72,1.28-1.28,2.77-2.24,4.46-2.89s3.58-.97,5.65-.97c2.34,0,4.39.41,6.14,1.23,1.75.81,3.21,2.03,4.38,3.65,1.18,1.61,2.07,3.63,2.66,6.05.59,2.42.89,5.23.89,8.44v26.34ZM294.52,452.37h-14.05v-44.5h14.05v44.5ZM294.6,403.45h-14.21v-10.82h14.21v10.82ZM289.82,341.01c-1.37.47-2.46,1.19-3.27,2.16-.81.97-1.38,2.2-1.72,3.69-.32,1.49-.48,3.26-.48,5.31v19.48h-14.05v-44.5h14.05v16.13c.34-2.4.82-4.57,1.47-6.52.69-2.02,1.58-3.74,2.68-5.17,1.1-1.43,2.44-2.52,4.02-3.29,1.57-.77,3.42-1.15,5.53-1.15h2.95v13.16h-5.97c-2.1,0-3.83.24-5.21.71ZM344.3,436.67c-.39,2.06-.95,3.96-1.67,5.71-.71,1.74-1.59,3.3-2.62,4.68-1.04,1.39-2.21,2.56-3.51,3.53-1.29.96-2.71,1.69-4.26,2.2-1.53.52-3.16.79-4.88.79-1.88,0-3.61-.32-5.17-.97-1.56-.65-2.95-1.59-4.16-2.85-1.2-1.26-2.21-2.83-3.05-4.68-.81-1.8-1.43-3.88-1.86-6.22v13.51h-14.05v-59.74h14.05v28.72c.43-2.34,1.05-4.41,1.86-6.2.83-1.86,1.85-3.41,3.05-4.66,1.21-1.26,2.59-2.22,4.14-2.87,1.56-.65,3.29-.97,5.19-.97,1.72,0,3.35.26,4.88.79,1.55.51,2.97,1.25,4.26,2.22,1.3.96,2.48,2.13,3.51,3.51,1.04,1.39,1.91,2.95,2.62,4.68.73,1.74,1.28,3.63,1.67,5.69.39,2.06.59,4.24.59,6.56s-.2,4.5-.59,6.56ZM362.55,452.37h-14.05v-44.5h14.05v44.5ZM362.63,403.45h-14.21v-10.82h14.21v10.82ZM397.49,418.85h-11.83v17.01c0,1.18.1,2.2.3,3.05.22.85.54,1.55.97,2.1.44.54,1.01.94,1.7,1.21.69.27,1.51.4,2.46.4.77,0,1.67-.09,2.7-.26,1.04-.18,2.27-.44,3.69-.79v10.45c-1.98.52-3.83.91-5.55,1.17-1.71.26-3.32.38-4.82.38-2.56,0-4.8-.38-6.74-1.13-1.94-.74-3.56-1.85-4.86-3.33-1.29-1.48-2.27-3.32-2.93-5.53-.65-2.22-.97-4.8-.97-7.75v-16.99h-5.33v-10.98h5.33v-10.25h14.05v10.25h11.83v10.98ZM415.37,452.37h-14.05v-44.5h14.05v44.5ZM415.45,403.45h-14.21v-10.82h14.21v10.82ZM464.21,436.81c-.51,2.09-1.24,4-2.2,5.73-.96,1.74-2.12,3.29-3.49,4.66-1.36,1.36-2.89,2.52-4.6,3.47-1.7.94-3.55,1.66-5.55,2.16-1.99.5-4.11.75-6.36.75s-4.35-.25-6.36-.75c-2-.5-3.86-1.22-5.57-2.16-1.7-.95-3.23-2.11-4.6-3.47-1.36-1.37-2.52-2.93-3.47-4.66-.96-1.74-1.69-3.65-2.2-5.73-.51-2.1-.77-4.33-.77-6.7s.26-4.59.77-6.68c.51-2.09,1.24-4,2.2-5.73.96-1.75,2.11-3.3,3.47-4.66,1.36-1.37,2.89-2.53,4.6-3.47,1.71-.94,3.57-1.66,5.57-2.16,2-.5,4.12-.75,6.36-.75s4.35.25,6.36.75c2,.5,3.86,1.22,5.57,2.16,1.71.94,3.24,2.1,4.6,3.47,1.36,1.36,2.52,2.91,3.47,4.66.95,1.74,1.69,3.65,2.2,5.73.51,2.07.77,4.3.77,6.68s-.26,4.6-.77,6.7ZM511.88,452.37h-14.05v-23.31c0-1.74-.15-3.24-.44-4.52-.3-1.29-.75-2.37-1.35-3.23-.61-.86-1.37-1.5-2.28-1.92-.9-.43-1.96-.65-3.19-.65-.86,0-1.65.11-2.38.32-.71.2-1.37.5-1.96.91-.59.39-1.12.89-1.57,1.49-.44.59-.82,1.28-1.13,2.08-.3.78-.52,1.66-.69,2.64-.15.97-.22,2.03-.22,3.19v22.99h-14.05v-44.5h14.05v13.72c.42-2.4,1.04-4.52,1.88-6.35.86-1.88,1.93-3.46,3.21-4.72,1.28-1.28,2.76-2.24,4.46-2.89,1.7-.65,3.58-.97,5.65-.97,2.34,0,4.39.41,6.14,1.23,1.75.81,3.21,2.03,4.38,3.65,1.18,1.61,2.07,3.63,2.66,6.05.59,2.42.89,5.23.89,8.44v26.34ZM511.68,354.27c.39,1.41.96,2.6,1.72,3.57.75.96,1.67,1.68,2.76,2.18,1.09.5,2.33.75,3.73.75,1.16,0,2.17-.17,3.05-.5.87-.34,1.63-.81,2.26-1.43s1.15-1.37,1.55-2.24c.4-.87.71-1.85.91-2.93h13.99c-.35,2.87-1.12,5.48-2.32,7.83-1.2,2.35-2.74,4.38-4.64,6.07-1.88,1.68-4.08,2.99-6.58,3.92-2.5.91-5.24,1.37-8.21,1.37-2.23,0-4.35-.25-6.36-.75-2-.5-3.86-1.22-5.57-2.16-1.7-.95-3.23-2.11-4.6-3.47-1.36-1.37-2.52-2.93-3.47-4.66-.96-1.74-1.69-3.65-2.2-5.73-.51-2.1-.77-4.33-.77-6.7s.26-4.59.77-6.68c.51-2.09,1.24-4,2.2-5.73.96-1.75,2.11-3.3,3.47-4.66,1.36-1.37,2.89-2.53,4.6-3.47,1.71-.94,3.57-1.66,5.57-2.16,2-.5,4.12-.75,6.36-.75,2.97,0,5.71.46,8.21,1.39,2.52.91,4.72,2.21,6.6,3.89,1.88,1.68,3.42,3.71,4.62,6.08,1.2,2.35,1.97,4.96,2.32,7.83h-13.99c-.2-1.08-.5-2.05-.91-2.93-.4-.87-.92-1.62-1.55-2.24s-1.39-1.1-2.26-1.43c-.87-.34-1.89-.51-3.05-.51-1.4,0-2.64.25-3.73.75-1.09.48-2.01,1.21-2.76,2.18-.75.96-1.33,2.14-1.72,3.55-.39,1.41-.59,3.04-.59,4.88s.19,3.47.59,4.88ZM545.28,311.91h14.04v59.74h-14.04v-59.74ZM626.25,480.59v20.64h-80.41v-15.29c0-4.02.49-7.55,1.46-10.59,1-3.07,2.34-5.74,4.02-8.04,1.69-2.32,3.63-4.3,5.86-5.96,2.23-1.66,4.56-3.09,7.01-4.29,2.48-1.23,4.98-2.27,7.53-3.13,2.57-.89,5.03-1.69,7.39-2.42l3.17-.99c1.87-.57,3.64-1.12,5.35-1.67,1.71-.57,3.29-1.17,4.77-1.81,1.5-.64,2.86-1.32,4.09-2.04,1.25-.75,2.31-1.6,3.2-2.55s1.56-2.02,2.04-3.2c.48-1.2.72-2.57.72-4.09,0-1.77-.37-3.41-1.12-4.9-.73-1.52-1.77-2.83-3.14-3.92-1.36-1.09-3.02-1.94-4.97-2.55-1.95-.64-4.13-.95-6.54-.95-2.63,0-4.97.37-7.01,1.12-2.02.75-3.72,1.84-5.11,3.27-1.36,1.41-2.39,3.17-3.1,5.28s-1.06,4.54-1.06,7.29v1.94h-24.11v-2.21c0-5.79.96-11.01,2.86-15.67,1.93-4.65,4.69-8.62,8.28-11.89,3.58-3.27,7.93-5.78,13.04-7.53,5.11-1.77,10.86-2.66,17.24-2.66s11.53.79,16.35,2.38c4.81,1.59,8.87,3.85,12.19,6.78,3.34,2.93,5.89,6.48,7.66,10.66,1.77,4.15,2.66,8.83,2.66,14.03,0,3.97-.5,7.46-1.5,10.46-1,2.97-2.35,5.56-4.05,7.76-1.68,2.2-3.62,4.08-5.82,5.62-2.21,1.52-4.52,2.82-6.95,3.88-2.43,1.07-4.88,1.96-7.35,2.69-2.48.73-4.83,1.37-7.05,1.94l-4.97,1.33c-1.5.39-3,.79-4.5,1.23-1.5.41-2.95.89-4.36,1.43-1.38.52-2.68,1.12-3.88,1.81-1.2.68-2.26,1.48-3.17,2.38-.89.89-1.59,1.92-2.11,3.1-.18.42-.32.87-.43,1.33h55.84ZM628.46,372.45c-1.28.27-2.62.4-4.04.4-2.19,0-4.19-.32-5.99-.95-1.79-.62-3.32-1.49-4.6-2.62-1.28-1.14-2.27-2.51-2.97-4.1-.7-1.6-1.05-3.38-1.05-5.35,0-2.13.42-4.03,1.27-5.71.86-1.68,2.11-3.1,3.74-4.26,1.64-1.17,3.64-2.06,5.99-2.66,2.35-.62,5.04-.93,8.05-.93h12.03v-1.03c0-1.37-.18-2.6-.54-3.67-.35-1.09-.88-2.01-1.58-2.76-.69-.75-1.54-1.33-2.54-1.72-1.01-.39-2.17-.59-3.49-.59s-2.46.17-3.43.5c-.96.34-1.74.82-2.36,1.45-.62.63-1.08,1.41-1.39,2.32-.3.9-.44,1.92-.44,3.07h-13.99c0-2.77.5-5.26,1.51-7.47,1.02-2.21,2.48-4.08,4.36-5.63,1.9-1.56,4.2-2.75,6.9-3.57,2.72-.83,5.77-1.25,9.16-1.25s6.54.44,9.24,1.31c2.72.86,5.01,2.12,6.88,3.77,1.87,1.64,3.29,3.66,4.28,6.05.98,2.39,1.47,5.12,1.47,8.17v26.4h-14.05v-11.16c-.3,1.22-.7,2.37-1.21,3.43-.54,1.12-1.19,2.15-1.94,3.09-.76.93-1.61,1.76-2.57,2.48-.95.73-2,1.34-3.12,1.84-1.12.5-2.31.87-3.59,1.13ZM723.56,466.96c-1.02,4.5-2.48,8.63-4.39,12.4-1.88,3.75-4.19,7.11-6.91,10.08-2.7,2.95-5.75,5.45-9.13,7.49-3.39,2.04-7.07,3.61-11.07,4.7-3.98,1.09-8.17,1.63-12.6,1.63s-8.64-.54-12.64-1.63c-3.97-1.09-7.65-2.66-11.03-4.7-3.38-2.04-6.44-4.54-9.16-7.49-2.7-2.97-5.01-6.33-6.92-10.08-1.88-3.77-3.34-7.9-4.36-12.4-1.02-4.5-1.53-9.31-1.53-14.44s.51-9.94,1.53-14.44c1.02-4.5,2.48-8.62,4.36-12.36,1.91-3.77,4.21-7.13,6.92-10.08,2.72-2.97,5.78-5.48,9.16-7.53,3.38-2.04,7.06-3.61,11.03-4.7,4-1.09,8.21-1.63,12.64-1.63s8.62.54,12.6,1.63c3.99,1.09,7.68,2.66,11.07,4.7,3.38,2.04,6.42,4.55,9.13,7.53,2.72,2.95,5.03,6.31,6.91,10.08,1.91,3.75,3.37,7.87,4.39,12.36s1.53,9.31,1.53,14.44-.51,9.94-1.53,14.44ZM726.71,169.81c-.56.13-1.07.24-1.58.38-.8.18-1.59.39-2.39.58-.14,0-.25.03-.34.08-.38.09-.77.19-1.15.28-.16-.08-.33-.14-.51-.19.4-.21.56-.59.47-1.14,2.31-.17,4.83-.54,7.29-1.08-.63.29-1.23.64-1.79,1.08ZM812.09,480.59v20.64h-80.4v-15.29c0-4.02.49-7.55,1.47-10.59,1-3.07,2.34-5.74,4.02-8.04,1.68-2.32,3.63-4.3,5.86-5.96,2.22-1.66,4.56-3.09,7.01-4.29,2.47-1.23,4.98-2.27,7.52-3.13,2.57-.89,5.03-1.69,7.39-2.42l3.17-.99c1.86-.57,3.64-1.12,5.35-1.67,1.7-.57,3.29-1.17,4.77-1.81,1.49-.64,2.86-1.32,4.08-2.04,1.25-.75,2.32-1.6,3.21-2.55.88-.95,1.56-2.02,2.04-3.2.48-1.2.72-2.57.72-4.09,0-1.77-.38-3.41-1.13-4.9-.72-1.52-1.77-2.83-3.13-3.92-1.36-1.09-3.02-1.94-4.97-2.55-1.95-.64-4.13-.95-6.54-.95-2.63,0-4.97.37-7.01,1.12-2.02.75-3.73,1.84-5.11,3.27-1.36,1.41-2.4,3.17-3.1,5.28-.71,2.11-1.06,4.54-1.06,7.29v1.94h-24.11v-2.21c0-5.79.95-11.01,2.86-15.67,1.93-4.65,4.69-8.62,8.27-11.89,3.59-3.27,7.94-5.78,13.04-7.53,5.11-1.77,10.86-2.66,17.24-2.66s11.53.79,16.34,2.38c4.81,1.59,8.88,3.85,12.19,6.78,3.34,2.93,5.89,6.48,7.67,10.66,1.77,4.15,2.65,8.83,2.65,14.03,0,3.97-.5,7.46-1.49,10.46-1,2.97-2.35,5.56-4.05,7.76-1.68,2.2-3.62,4.08-5.82,5.62-2.2,1.52-4.52,2.82-6.95,3.88-2.43,1.07-4.88,1.96-7.36,2.69-2.47.73-4.82,1.37-7.05,1.94l-4.97,1.33c-1.5.39-3,.79-4.49,1.23-1.5.41-2.95.89-4.36,1.43-1.38.52-2.68,1.12-3.88,1.81-1.2.68-2.26,1.48-3.16,2.38-.89.89-1.59,1.92-2.11,3.1-.18.42-.32.87-.43,1.33h55.84ZM895.76,425.55c-3.73,3.91-7.06,7.66-10.01,11.27-2.93,3.61-5.53,7.23-7.8,10.86-2.24,3.63-4.19,7.36-5.82,11.17-1.64,3.81-3.04,7.88-4.22,12.19-1.15,4.29-2.11,8.91-2.86,13.86-.75,4.95-1.35,10.39-1.81,16.31h-26.29c.38-6.04,1.04-11.69,1.98-16.96.95-5.27,2.25-10.27,3.91-15.02,1.66-4.74,3.69-9.3,6.1-13.66,2.41-4.36,5.27-8.64,8.58-12.84,3.34-4.2,7.14-8.39,11.41-12.57,1.85-1.81,3.83-3.66,5.89-5.52h-56.83v-20.84h77.78v21.73Z"/>
      <path class="cls-1" d="M594.59,345.01c-.07-.44-.16-.86-.26-1.27-.39-1.6-.97-2.94-1.76-4.02-.78-1.08-1.75-1.88-2.91-2.4-1.15-.54-2.5-.81-4.04-.81s-2.86.26-4.03.77c-1.17.51-2.16,1.26-2.95,2.26-.79.98-1.4,2.2-1.82,3.65-.16.57-.28,1.18-.38,1.82h18.14Z"/>
      <path class="cls-1" d="M697.37,436.18c-.77-2.2-1.74-4.13-2.89-5.79-1.14-1.68-2.46-3.08-3.95-4.19-1.5-1.11-3.18-1.95-5.04-2.52-1.84-.57-3.85-.85-6.02-.85s-4.2.28-6.06.85c-1.84.57-3.51,1.41-5.01,2.52-1.5,1.11-2.83,2.51-3.98,4.19-1.14,1.66-2.1,3.59-2.89,5.79-.78,2.2-1.36,4.67-1.77,7.39-.39,2.72-.58,5.71-.58,8.96s.19,6.23.58,8.96c.41,2.72,1,5.19,1.77,7.39.79,2.2,1.76,4.14,2.89,5.82,1.15,1.66,2.48,3.04,3.98,4.16,1.5,1.11,3.17,1.95,5.01,2.52,1.86.57,3.88.85,6.06.85s4.19-.28,6.02-.85c1.87-.57,3.55-1.41,5.04-2.52,1.49-1.11,2.81-2.5,3.95-4.16,1.15-1.68,2.12-3.62,2.89-5.82.79-2.2,1.38-4.67,1.77-7.39.41-2.72.61-5.71.61-8.96s-.2-6.23-.61-8.96c-.38-2.72-.97-5.19-1.77-7.39Z"/>
      <path class="cls-1" d="M338.52,357.96c.74.95,1.65,1.67,2.74,2.16,1.09.48,2.35.73,3.79.73.96,0,1.84-.11,2.64-.34.81-.23,1.53-.56,2.18-.99.66-.43,1.24-.97,1.74-1.61.51-.65.94-1.39,1.27-2.24.34-.85.59-1.8.77-2.85s.26-2.19.26-3.43-.09-2.37-.26-3.41c-.18-1.05-.43-2-.77-2.85-.34-.85-.76-1.59-1.27-2.24-.5-.65-1.08-1.18-1.74-1.61-.65-.43-1.37-.76-2.18-.99-.81-.23-1.69-.34-2.64-.34-1.44,0-2.71.24-3.81.73-1.09.48-2,1.2-2.72,2.16s-1.28,2.15-1.66,3.57c-.36,1.43-.54,3.09-.54,4.99s.18,3.57.54,5c.38,1.43.93,2.62,1.66,3.57Z"/>
    </g>
  </g>
</svg>