<svg width="2058" height="1973" viewBox="0 0 2058 1973" fill="none" xmlns="http://www.w3.org/2000/svg">
<path d="M2001.96 798.733C2001.74 796.599 1991.93 797.144 1990.23 795.179C1989.29 794.095 1990.38 790.559 1989.71 789.911C1988.33 788.577 1982.6 790.348 1981.8 789.644C1980.63 788.614 1984.06 782.46 1983.64 780.722C1982.86 777.516 1977.28 778.975 1977.8 775.589L1985.87 774.532C1984.66 764.608 1979.47 763.203 1977.79 753.423C1978.7 750.815 1979.33 748.243 1979.8 745.372C1975.47 729.535 1972.04 739.039 1967.76 736.419C1967.36 736.175 1961.84 729.714 1961.69 729.27C1960.92 727.539 1960.25 727.513 1959.68 729.27C1959.88 724.592 1959.21 720.566 1957.67 717.194C1957.21 716.354 1958.74 712.733 1957.26 711.51C1956.03 710.487 1952.61 712.26 1951.56 709.859C1947.47 700.539 1945.26 683.505 1941.09 672.383C1876.7 500.403 1712.73 367.445 1527.03 358.929C1523.27 357.159 1518.74 357.269 1514.96 358.929C1474.72 358.104 1441.45 360.874 1402.27 368.992C1384.8 372.612 1379.28 369.233 1366.05 381.069C1365.22 381.811 1358.45 384.021 1355.99 385.094C1350.68 387.409 1345.06 389.433 1339.35 391.174C1325.44 368.511 1310.23 346.738 1293.81 325.966C1288.27 315.842 1282.31 306.111 1275.94 297.095C1247.19 256.362 1204.46 224.773 1169.03 190.682C1162.21 184.122 1155.71 173.556 1147.71 167.729C1138.46 160.999 1124.1 158.023 1113.16 151.963C1101.75 145.639 1090.88 134.677 1078.88 129.897C1070.95 126.739 1061.77 126.054 1053.62 122.953C1037.34 116.752 966.643 84.049 956.517 85.0177C952.091 85.4412 949.849 88.4646 946.389 89.1165C930.94 92.0275 881.409 77.9885 861.683 75.4216C817.067 69.6161 773.213 69.6403 729.429 73.0539C702.77 74.6239 676.521 77.7128 650.793 82.318C644.135 83.3215 637.472 84.3529 630.796 85.438C610.166 88.7911 590.096 95.4769 569.181 97.2739V102.34C564.172 103.911 559.185 105.532 554.227 107.216C538.182 111.273 524.625 114.216 506.265 117.873C502.002 118.722 467.981 131.984 466.76 133.727C465.036 136.191 469.02 141.042 467.2 143.898C456.867 149.145 446.677 154.631 436.662 160.39C432.313 162.481 428.401 164.444 425.694 166.098C385.42 190.708 329.282 230.457 295.509 262.318C290.598 266.061 287.244 270.087 285.447 274.394C264.93 295.371 246.81 319.489 229.103 342.827C226.56 343.3 223.569 346.033 221.489 349.213C221.717 348.309 221.638 347.473 221.054 346.852C221.969 345.546 225.844 344.793 225.079 340.814C224.166 341.404 221.436 343.197 221.071 342.82L220.056 338.808C218.802 339.41 218.158 341.283 217.477 342.3C217.309 342.432 217.153 342.594 217.029 342.827C211.699 346.835 202.013 348.625 198.688 353.844C196.426 357.396 198.897 359.756 197.867 362.834C196.456 367.05 192.733 369.054 190.87 375.03C190.455 376.359 189.008 377.974 188.857 379.056C187.612 387.973 197.65 380.481 196.906 375.03C200.949 372.085 203.881 367.815 208.98 366.979C209.927 365.859 210.809 364.722 211.657 363.577C211.213 364.685 210.957 365.826 210.993 366.979C192.272 393.497 171.256 423.567 157.333 452.145C154.665 457.621 153.256 471.411 148.761 476.42C146.975 478.41 143.713 477.165 142.979 477.973C141.843 479.221 142.997 483.446 141.614 485.806C140.352 487.956 137.008 487.305 136.538 487.743V485.73C141.886 469.213 150.895 454.049 156.661 437.425C157.681 434.483 161.667 431.525 160.665 427.362C157.683 428.034 156.238 431.157 154.648 433.399C140.735 453.032 130.149 478.416 124.464 501.832C118.678 508.962 114.402 519.949 110.493 525.094C106.586 530.238 98.2986 527.951 104.51 540.538C105.26 542.056 108.278 542.126 108.418 543.405C110.056 558.346 97.7159 557.34 96.4946 561.524C94.951 566.813 101.335 572.339 101.8 575.66C101.953 576.753 100.574 594.903 100.295 597.241C100.091 598.959 90.1811 621.736 89.2428 622.762C87.2531 624.938 79.9786 622.229 80.2326 625.616C80.5004 629.185 91.8205 628.691 80.1933 644.736C76.4856 644.091 68.5868 644.493 72.15 648.755C72.5829 649.273 75.4249 648.316 76.1687 648.761C78.8109 650.341 76.9219 661.039 78.181 664.863C78.2611 665.106 81.3272 665.925 81.9266 668.262C82.1737 669.225 83.7006 686.701 83.6579 687.695C83.2879 696.367 72.7086 719.258 70.4527 728.738C69.0299 734.715 73.0569 732.757 73.6111 733.74C75.7408 737.519 69.1527 746.796 68.1043 751.395C75.9781 748.75 75.4755 758.21 74.1108 764.127C73.816 765.405 67.8641 765.488 70.0901 772.554C70.9061 775.146 77.5404 771.15 76.1545 776.545L62.1298 788.71L68.0837 794.684C62.8152 798.061 55.3879 817.217 58.0763 821.856C58.2713 822.192 64.1574 818.239 63.8154 824.591C63.5108 830.247 56.0296 830.306 56.0001 834.919C55.9618 840.809 68.1431 840.954 72.1442 843.996C73.6195 843.967 74.323 844.608 74.1564 846.009C74.5028 846.459 73.4849 849.267 74.2635 849.847C75.6244 850.859 81.7507 849.388 84.916 850.336C91.8308 852.408 85.2167 857.758 84.694 861.459C84.3643 863.795 86.1835 865.309 86.2302 866.136C89.768 868.718 86.8821 871.134 84.2179 872.174C83.9217 872.143 83.228 870.34 82.2464 870.133C82.1992 871.14 82.0892 872.166 82.157 873.191C83.2334 889.441 96.248 889.279 95.8014 905.875C95.6796 910.415 90.0298 911.354 90.5683 915.016C90.7294 916.112 96.359 926.141 97.4673 926.475L110.358 920.48C121.961 970.619 141.546 1022.03 165.673 1067.45C238.893 1205.31 342.456 1300.42 486.741 1360.2C568.355 1394.01 661.279 1410.88 753.31 1408.66C758.633 1408.79 763.967 1408.87 769.319 1408.87C889.941 1408.87 1003.09 1376.89 1100.79 1320.98C1054.56 1380.79 1027.04 1455.81 1027.04 1537.26C1027.04 1541.95 1027.16 1546.62 1027.34 1551.27C1021.83 1663.58 1095.16 1779.42 1180.92 1846.33C1181.74 1848.47 1184.93 1849.1 1186.96 1848.35C1185.48 1850.51 1186.82 1851.85 1190.98 1852.37C1199.83 1858.87 1200.6 1859.31 1206.25 1866.45C1208.96 1869.86 1264.19 1887.05 1273.48 1890.61C1275.33 1891.76 1276.67 1891.76 1277.51 1890.61C1282.7 1893.49 1288.06 1894.83 1293.61 1894.64C1302.83 1896.73 1312.37 1897.61 1321.78 1898.67C1326.54 1901.67 1329.9 1902.35 1331.84 1900.68C1423.51 1909.21 1521.89 1891.91 1591.93 1832.31C1601.31 1824.33 1610.63 1810.26 1623.61 1808.07L1619.6 1806.06C1623.86 1796.72 1633.61 1791.86 1640.75 1783.96C1653.84 1769.5 1660.8 1758.44 1669.09 1742.84C1671.42 1739.57 1673.7 1736.24 1675.92 1732.89C1685.07 1721.87 1700.32 1706.57 1701.5 1698.14C1704.77 1674.9 1721.11 1649.76 1726.25 1620.91L1726.94 1611.97C1729.67 1599.26 1731.74 1586.3 1733.06 1573.12C1734.5 1565.88 1735.41 1558.8 1734.47 1553.79C1734.72 1548.31 1734.86 1542.8 1734.86 1537.26C1734.86 1455.96 1707.44 1381.07 1661.37 1321.31C1667.69 1319.6 1673.8 1317.81 1675.17 1317.18C1677.67 1316.04 1685.62 1309.59 1690.03 1306.92C1693.13 1306.79 1695.81 1304.78 1698.08 1300.89C1701.12 1302.16 1706.82 1300.33 1708.14 1296.86C1722.08 1290.29 1747.61 1282.89 1758.32 1275.6C1764.1 1271.66 1768.82 1264.22 1774.71 1259.79C1793.11 1245.99 1796.6 1243.4 1812.73 1227.37C1826.58 1213.61 1852.46 1194.39 1863.12 1180.6C1867.77 1174.57 1872.76 1155.16 1881.19 1142.88C1888.25 1132.58 1904.12 1116.24 1909.52 1104.79C1915.92 1091.21 1913.54 1093.74 1922.34 1081.44C1936.57 1061.52 1942.43 1038.34 1954.75 1019.21C1956.22 1016.92 1960.85 1016.35 1961.48 1013.88C1962.23 1010.94 1957.05 1005.98 1958.49 1000.9C1959.97 995.647 1967.27 993.805 1967.72 991.816C1968.2 989.686 1964.05 987.008 1963.71 983.816C1963.63 983.03 1963.94 969.02 1964.1 968.245C1964.3 967.279 1972.1 951.249 1972.76 950.513C1974.99 948.016 1977.45 950.718 1979.79 950.665C1975.56 942.478 1973.86 935.372 1985.84 934.547C1981.65 928.932 1980.25 921.418 1979.8 914.441C1983.49 910.281 1983.49 908.268 1979.8 908.403C1980.53 895.84 1988.03 872.741 1991.89 861.062C1992.27 859.913 1988.15 860.419 1987.76 858.811C1986.93 855.274 1989.1 850.721 1989.47 846.952C1989.67 844.932 1987.74 842.483 1987.84 841.17C1987.92 840.027 1996.87 836.033 1997.9 832.916C1989.23 830.838 1997.8 826.35 1999.17 819.927C2000.34 814.417 1997.94 811.986 1998.11 808.66C1998.29 805.251 2002.44 803.224 2001.96 798.733ZM219.042 354.903C217.75 355.901 216.305 357.154 214.997 358.571C215.721 357.36 216.409 356.141 217.029 354.903C217.921 354.335 218.988 353.347 219.87 352.225C219.483 353.139 219.193 354.045 219.042 354.903ZM1384.16 381.069C1383.14 381.31 1382.2 381.511 1381.27 381.772C1379.81 382.109 1378.36 382.484 1376.9 382.835C1376.64 382.832 1376.44 382.891 1376.28 382.987C1375.58 383.157 1374.88 383.328 1374.18 383.501C1373.89 383.363 1373.58 383.247 1373.25 383.152C1373.98 382.764 1374.28 382.082 1374.1 381.069C1378.33 380.757 1382.93 380.088 1387.43 379.089C1386.28 379.624 1385.18 380.264 1384.16 381.069ZM1400.26 377.043C1398.31 376.959 1396.33 377.002 1394.39 377.222C1396.45 376.566 1398.43 375.837 1400.26 375.03C1401.32 375.419 1402.63 375.545 1403.92 375.409C1402.81 375.938 1401.62 376.478 1400.26 377.043Z" fill="white"/>
<path d="M277.398 274.394C278.381 273.552 280.338 273.223 281.423 272.381C282.965 271.184 284.527 270.993 285.448 270.368C288.725 268.143 291.765 266.066 293.497 262.317C291.615 258.906 286.292 266.612 283.435 268.356C281.284 269.669 279.149 269.695 275.386 272.381C261.828 282.058 246.808 292.572 241.197 308.609C244.004 311.743 274.331 277.022 277.398 274.394Z" fill="white"/>
<path d="M82.1962 894.325C80.6418 892.864 68.6093 896.481 68.1475 900.311L80.1692 906.399L82.1962 894.325Z" fill="white"/>
<path d="M76.1801 914.451C74.436 916.426 78.0823 930.254 84.2072 928.521C84.9888 922.254 83.9797 914.578 76.1801 914.451Z" fill="white"/>
<path d="M171.721 407.279C172.841 405.414 177.845 396.467 176.775 395.17C173.643 391.375 172.467 398.003 171.785 399.138C170.664 401.003 165.66 409.95 166.731 411.248C169.863 415.043 171.038 408.414 171.721 407.279Z" fill="white"/>
<path d="M71.1476 876.209C66.2937 880.41 62.5772 889.891 72.1336 890.279L71.1476 876.209Z" fill="white"/>
<path d="M1995.54 754.486C1995.56 753.932 1993.89 753.58 1993.89 753.423C1992.68 748.487 1990.43 750.013 1987.85 753.423C1987.23 754.994 1984.61 756.111 1985.86 759.462C1988.21 758.129 1995.46 756.814 1995.54 754.486Z" fill="white"/>
<path d="M300.537 246.216H301.546C302.013 245.91 303.07 246.517 303.558 246.216C315.585 238.796 315.877 228.074 307.583 238.165C300.997 241.36 307.747 230.764 302.579 234.156C297.318 237.608 293.782 241.228 299.534 246.216C296.447 248.202 290.514 252.205 290.498 256.299L301.546 246.216C301.31 246.37 300.924 246.293 300.537 246.216Z" fill="white"/>
<path d="M92.2569 900.363H88.2529V908.393H92.2569V900.363Z" fill="white"/>
<path d="M62.0827 866.136C54.9655 866.009 58.8113 870.095 58.0783 876.198C58.5966 877.062 61.2362 874.186 62.0827 874.187C64.4748 872.218 65.3355 866.642 62.0827 866.136Z" fill="white"/>
<path d="M78.1761 664.868H74.167V670.891H78.1761V664.868Z" fill="white"/>
<path d="M68.1065 876.191C69.3264 872.873 66.7457 871.729 66.107 870.161L64.0947 874.187C64.3183 874.201 65.3966 877.132 68.1065 876.191Z" fill="white"/>
<path d="M80.1833 636.696H74.167V640.7H80.1833V636.696Z" fill="white"/>
<path d="M378.505 189.006C378.932 188.768 379.428 188.409 380.025 187.846C400.184 176.965 392.681 173.485 378.013 185.834C375.975 187.55 372.558 188.756 371.977 191.852C375.12 192.787 376.763 190.629 378.505 189.006Z" fill="white"/>
<path d="M88.2321 614.555H82.2158V618.56H88.2321V614.555Z" fill="white"/>
<path d="M319.657 224.076C322.726 224.788 341.273 220.93 334.711 216.038C329.939 212.48 321.677 220.737 317.644 224.076C315.657 225.721 313.152 226.831 311.617 229.118L312.633 230.133L319.657 224.076Z" fill="white"/>
</svg>
